<svg width="1440" height="1089" viewBox="0 0 1440 1089" fill="none" xmlns="http://www.w3.org/2000/svg">
<rect y="594" width="1440" height="495" fill="#1D3557"/>
<rect width="1440" height="594" fill="white"/>
<rect x="621" y="693" width="227" height="2" fill="white"/>
<rect x="688" y="704" width="100" height="2" fill="white"/>
<rect x="571" y="715" width="264" height="2" fill="white"/>
<rect x="555" y="735" width="328" height="2" fill="white"/>
<rect x="593" y="744" width="219" height="2" fill="white"/>
<rect x="558" y="769" width="441" height="2" fill="white"/>
<rect x="442" y="780" width="456" height="2" fill="white"/>
<rect x="475" y="789" width="482" height="2" fill="white"/>
<rect x="524" y="758" width="404" height="2" fill="white"/>
<rect x="515" y="800" width="425" height="2" fill="white"/>
<rect x="576" y="809" width="263" height="2" fill="white"/>
<rect x="539" y="820" width="359" height="2" fill="white"/>
<rect x="666" y="829" width="190" height="2" fill="white"/>
<rect x="598" y="838" width="211" height="2" fill="white"/>
<rect x="515" y="849" width="395" height="2" fill="white"/>
<rect x="630" y="860" width="222" height="2" fill="white"/>
<rect x="573" y="880" width="307" height="2" fill="white"/>
<rect x="671" y="898" width="184" height="2" fill="white"/>
<rect x="614" y="918" width="170" height="2" fill="white"/>
<rect x="676" y="938" width="98" height="2" fill="white"/>
<rect x="741" y="952" width="45" height="2" fill="white"/>
<rect x="621" y="724" width="181" height="2" fill="white"/>
<rect x="648" y="504" width="141" height="3" fill="#1D3557"/>
<rect x="633" y="511" width="168" height="3" fill="#1D3557"/>
<rect x="636" y="510" width="160" height="2" fill="#1D3557"/>
<rect x="642" y="509" width="146" height="2" fill="#1D3557"/>
<rect x="669" y="508" width="93" height="2" fill="#1D3557"/>
<rect x="669" y="503" width="93" height="2" fill="#1D3557"/>
<rect x="669" y="498" width="93" height="2" fill="#1D3557"/>
<rect x="669" y="486" width="93" height="2" fill="#1D3557"/>
<rect x="684" y="491" width="67" height="2" fill="#1D3557"/>
<rect x="603" y="517" width="22" height="2" fill="#1D3557"/>
<rect x="532" y="523" width="145" height="3" fill="#1D3557"/>
<rect x="510" y="533" width="84" height="3" fill="#1D3557"/>
<rect x="454" y="545" width="56" height="3" fill="#1D3557"/>
<rect x="418" y="567" width="47" height="3" fill="#1D3557"/>
<rect x="471" y="567" width="14" height="3" fill="#1D3557"/>
<rect x="490" y="567" width="32" height="3" fill="#1D3557"/>
<rect x="500" y="546" width="34" height="6" fill="#1D3557"/>
<rect x="527" y="546" width="22" height="4" fill="#1D3557"/>
<rect x="502" y="546" width="16" height="4" fill="#1D3557"/>
<rect x="526" y="567" width="11" height="3" fill="#1D3557"/>
<rect x="544" y="567" width="63" height="3" fill="#1D3557"/>
<rect x="394" y="576" width="64" height="3" fill="#1D3557"/>
<rect x="465" y="576" width="53" height="3" fill="#1D3557"/>
<rect x="522" y="576" width="90" height="3" fill="#1D3557"/>
<rect x="617" y="575" width="111" height="3" fill="#1D3557"/>
<rect x="738" y="575" width="144" height="3" fill="#1D3557"/>
<rect x="879" y="575" width="34" height="3" fill="#1D3557"/>
<rect x="920" y="575" width="8" height="3" fill="#1D3557"/>
<rect x="936" y="575" width="15" height="3" fill="#1D3557"/>
<rect x="959" y="575" width="88" height="3" fill="#1D3557"/>
<rect x="371" y="587" width="82" height="3" fill="#1D3557"/>
<rect x="460" y="587" width="50" height="3" fill="#1D3557"/>
<rect x="520" y="587" width="92" height="3" fill="#1D3557"/>
<rect x="617" y="586" width="117" height="3" fill="#1D3557"/>
<rect x="738" y="586" width="137" height="3" fill="#1D3557"/>
<rect x="879" y="586" width="34" height="3" fill="#1D3557"/>
<rect x="920" y="586" width="8" height="3" fill="#1D3557"/>
<rect x="936" y="586" width="24" height="3" fill="#1D3557"/>
<rect x="959" y="586" width="130" height="3" fill="#1D3557"/>
<rect x="617" y="567" width="106" height="3" fill="#1D3557"/>
<rect x="734" y="567" width="138" height="3" fill="#1D3557"/>
<rect x="883" y="567" width="20" height="3" fill="#1D3557"/>
<rect x="920" y="567" width="24" height="3" fill="#1D3557"/>
<rect x="951" y="567" width="64" height="3" fill="#1D3557"/>
<rect x="532" y="545" width="29" height="3" fill="#1D3557"/>
<rect x="578" y="545" width="12" height="3" fill="#1D3557"/>
<rect x="600" y="545" width="39" height="3" fill="#1D3557"/>
<rect x="650" y="545" width="12" height="3" fill="#1D3557"/>
<rect x="629" y="543" width="12" height="3" fill="#1D3557"/>
<rect x="647" y="543" width="12" height="3" fill="#1D3557"/>
<rect x="634" y="542" width="19" height="3" fill="#1D3557"/>
<rect x="672" y="545" width="11" height="3" fill="#1D3557"/>
<rect x="671" y="542" width="13" height="3" fill="#1D3557"/>
<rect x="664" y="538" width="20" height="2" fill="#1D3557"/>
<rect x="662" y="536" width="20" height="2" fill="#1D3557"/>
<rect x="658" y="531" width="20" height="2" fill="#1D3557"/>
<rect x="657" y="527" width="20" height="2" fill="#1D3557"/>
<rect x="655" y="526" width="20" height="2" fill="#1D3557"/>
<rect x="655" y="521" width="20" height="2" fill="#1D3557"/>
<rect x="655" y="519" width="20" height="2" fill="#1D3557"/>
<rect x="654" y="515" width="20" height="2" fill="#1D3557"/>
<rect x="655" y="513" width="20" height="2" fill="#1D3557"/>
<rect x="691" y="545" width="28" height="3" fill="#1D3557"/>
<rect x="731" y="545" width="15" height="3" fill="#1D3557"/>
<rect x="765" y="545" width="12" height="3" fill="#1D3557"/>
<rect x="790" y="546" width="30" height="2" fill="#1D3557"/>
<rect x="823" y="542" width="21" height="2" fill="#1D3557"/>
<rect x="826" y="544" width="19" height="2" fill="#1D3557"/>
<rect x="793" y="544" width="21" height="2" fill="#1D3557"/>
<rect x="827" y="546" width="20" height="2" fill="#1D3557"/>
<rect x="828" y="548" width="18" height="2" fill="#1D3557"/>
<rect x="833" y="550" width="15" height="2" fill="#1D3557"/>
<rect x="834" y="553" width="23" height="2" fill="#1D3557"/>
<rect x="835" y="555" width="21" height="2" fill="#1D3557"/>
<rect x="838" y="557" width="22" height="2" fill="#1D3557"/>
<rect x="845" y="561" width="20" height="2" fill="#1D3557"/>
<rect x="854" y="565" width="16" height="2" fill="#1D3557"/>
<rect x="857" y="570" width="16" height="2" fill="#1D3557"/>
<rect x="858" y="545" width="103" height="3" fill="#1D3557"/>
<rect x="518" y="529" width="24" height="2" fill="#1D3557"/>
<rect x="538" y="526" width="31" height="2" fill="#1D3557"/>
<rect x="545" y="526" width="24" height="1" fill="#1D3557"/>
<rect x="596" y="521" width="24" height="2" fill="#1D3557"/>
<rect x="598" y="519" width="24" height="2" fill="#1D3557"/>
<rect x="605" y="515" width="24" height="2" fill="#1D3557"/>
<rect x="608" y="513" width="23" height="2" fill="#1D3557"/>
<rect x="614" y="512" width="23" height="2" fill="#1D3557"/>
<rect x="504" y="536" width="11" height="9" fill="#1D3557"/>
<rect x="443" y="553" width="21" height="2" fill="#1D3557"/>
<rect x="486" y="552" width="24" height="4" fill="#1D3557"/>
<rect x="490" y="550" width="26" height="4" fill="#1D3557"/>
<rect x="487" y="548" width="26" height="4" fill="#1D3557"/>
<rect x="504" y="545" width="11" height="4" fill="#1D3557"/>
<rect x="508" y="540" width="11" height="4" fill="#1D3557"/>
<rect x="515" y="536" width="11" height="4" fill="#1D3557"/>
<rect x="514" y="531" width="17" height="4" fill="#1D3557"/>
<rect x="525" y="527" width="19" height="3" fill="#1D3557"/>
<rect x="528" y="525" width="24" height="4" fill="#1D3557"/>
<rect x="484" y="555" width="11" height="4" fill="#1D3557"/>
<rect x="527" y="552" width="33" height="2" fill="#1D3557"/>
<rect x="573" y="552" width="14" height="2" fill="#1D3557"/>
<rect x="597" y="552" width="14" height="2" fill="#1D3557"/>
<rect x="624" y="552" width="10" height="2" fill="#1D3557"/>
<rect x="646" y="552" width="12" height="2" fill="#1D3557"/>
<rect x="670" y="552" width="12" height="2" fill="#1D3557"/>
<rect x="667" y="557" width="12" height="2" fill="#1D3557"/>
<rect x="669" y="555" width="12" height="2" fill="#1D3557"/>
<rect x="670" y="553" width="12" height="2" fill="#1D3557"/>
<rect x="671" y="550" width="12" height="2" fill="#1D3557"/>
<rect x="671" y="548" width="12" height="2" fill="#1D3557"/>
<rect x="693" y="552" width="12" height="2" fill="#1D3557"/>
<rect x="709" y="552" width="12" height="2" fill="#1D3557"/>
<rect x="731" y="552" width="18" height="2" fill="#1D3557"/>
<rect x="766" y="552" width="12" height="2" fill="#1D3557"/>
<rect x="792" y="552" width="12" height="2" fill="#1D3557"/>
<rect x="794" y="553" width="11" height="2" fill="#1D3557"/>
<rect x="793" y="550" width="10" height="2" fill="#1D3557"/>
<rect x="798" y="549" width="11" height="2" fill="#1D3557"/>
<rect x="810" y="552" width="16" height="2" fill="#1D3557"/>
<rect x="811" y="554" width="16" height="2" fill="#1D3557"/>
<rect x="812" y="556" width="16" height="2" fill="#1D3557"/>
<rect x="815" y="558" width="14" height="2" fill="#1D3557"/>
<rect x="819" y="561" width="14" height="2" fill="#1D3557"/>
<rect x="832" y="552" width="23" height="2" fill="#1D3557"/>
<rect x="861" y="552" width="33" height="2" fill="#1D3557"/>
<rect x="900" y="553" width="32" height="1" fill="#1D3557"/>
<rect x="947" y="552" width="20" height="2" fill="#1D3557"/>
<rect x="870" y="558" width="66" height="2" fill="#1D3557"/>
<rect x="729" y="559" width="132" height="2" fill="#1D3557"/>
<rect x="621" y="559" width="101" height="2" fill="#1D3557"/>
<rect x="547" y="559" width="61" height="2" fill="#1D3557"/>
<rect x="481" y="559" width="58" height="2" fill="#1D3557"/>
<rect x="437" y="559" width="21" height="2" fill="#1D3557"/>
<rect x="418" y="563" width="32" height="2" fill="#1D3557"/>
<rect x="476" y="561" width="12" height="6" fill="#1D3557"/>
<rect x="492" y="563" width="27" height="2" fill="#1D3557"/>
<rect x="486" y="561" width="21" height="2" fill="#1D3557"/>
<rect x="494" y="556" width="13" height="3" fill="#1D3557"/>
<rect x="491" y="565" width="14" height="2" fill="#1D3557"/>
<rect x="527" y="563" width="11" height="2" fill="#1D3557"/>
<rect x="546" y="563" width="12" height="2" fill="#1D3557"/>
<rect x="572" y="563" width="13" height="2" fill="#1D3557"/>
<rect x="596" y="563" width="11" height="2" fill="#1D3557"/>
<rect x="618" y="563" width="14" height="2" fill="#1D3557"/>
<rect x="642" y="563" width="11" height="2" fill="#1D3557"/>
<rect x="666" y="563" width="13" height="2" fill="#1D3557"/>
<rect x="666" y="561" width="13" height="2" fill="#1D3557"/>
<rect x="665" y="565" width="15" height="2" fill="#1D3557"/>
<rect x="691" y="563" width="15" height="2" fill="#1D3557"/>
<rect x="710" y="563" width="13" height="2" fill="#1D3557"/>
<rect x="734" y="563" width="16" height="2" fill="#1D3557"/>
<rect x="769" y="563" width="13" height="2" fill="#1D3557"/>
<rect x="796" y="563" width="12" height="2" fill="#1D3557"/>
<rect x="821" y="563" width="17" height="2" fill="#1D3557"/>
<rect x="824" y="565" width="17" height="2" fill="#1D3557"/>
<rect x="827" y="570" width="17" height="2" fill="#1D3557"/>
<rect x="827" y="573" width="24" height="2" fill="#1D3557"/>
<rect x="825" y="578" width="13" height="2" fill="#1D3557"/>
<rect x="826" y="580" width="12" height="2" fill="#1D3557"/>
<rect x="826" y="584" width="12" height="2" fill="#1D3557"/>
<rect x="824" y="589" width="12" height="2" fill="#1D3557"/>
<rect x="824" y="590" width="12" height="2" fill="#1D3557"/>
<rect x="842" y="578" width="12" height="2" fill="#1D3557"/>
<rect x="852" y="563" width="15" height="2" fill="#1D3557"/>
<rect x="882" y="563" width="19" height="2" fill="#1D3557"/>
<rect x="919" y="563" width="21" height="2" fill="#1D3557"/>
<rect x="968" y="563" width="27" height="2" fill="#1D3557"/>
<rect x="431" y="572" width="17" height="2" fill="#1D3557"/>
<rect x="470" y="570" width="10" height="6" fill="#1D3557"/>
<rect x="490" y="570" width="16" height="6" fill="#1D3557"/>
<rect x="524" y="572" width="11" height="2" fill="#1D3557"/>
<rect x="525" y="570" width="11" height="2" fill="#1D3557"/>
<rect x="526" y="565" width="11" height="2" fill="#1D3557"/>
<rect x="527" y="561" width="12" height="2" fill="#1D3557"/>
<rect x="528" y="557" width="12" height="2" fill="#1D3557"/>
<rect x="529" y="555" width="12" height="2" fill="#1D3557"/>
<rect x="529" y="553" width="13" height="2" fill="#1D3557"/>
<rect x="531" y="550" width="12" height="2" fill="#1D3557"/>
<rect x="531" y="548" width="24" height="2" fill="#1D3557"/>
<rect x="538" y="543" width="26" height="2" fill="#1D3557"/>
<rect x="543" y="541" width="31" height="3" fill="#1D3557"/>
<rect x="558" y="538" width="33" height="2" fill="#1D3557"/>
<rect x="566" y="536" width="15" height="2" fill="#1D3557"/>
<rect x="544" y="572" width="12" height="2" fill="#1D3557"/>
<rect x="570" y="572" width="13" height="2" fill="#1D3557"/>
<rect x="596" y="572" width="11" height="2" fill="#1D3557"/>
<rect x="596" y="574" width="12" height="2" fill="#1D3557"/>
<rect x="596" y="570" width="12" height="2" fill="#1D3557"/>
<rect x="596" y="565" width="11" height="2" fill="#1D3557"/>
<rect x="595" y="561" width="13" height="2" fill="#1D3557"/>
<rect x="594" y="557" width="13" height="2" fill="#1D3557"/>
<rect x="596" y="555" width="13" height="2" fill="#1D3557"/>
<rect x="596" y="553" width="13" height="2" fill="#1D3557"/>
<rect x="598" y="550" width="13" height="2" fill="#1D3557"/>
<rect x="599" y="548" width="14" height="2" fill="#1D3557"/>
<rect x="599" y="543" width="15" height="2" fill="#1D3557"/>
<rect x="598" y="541" width="17" height="2" fill="#1D3557"/>
<rect x="590" y="536" width="18" height="2" fill="#1D3557"/>
<rect x="589" y="534" width="17" height="2" fill="#1D3557"/>
<rect x="617" y="572" width="14" height="2" fill="#1D3557"/>
<rect x="617" y="570" width="16" height="2" fill="#1D3557"/>
<rect x="617" y="565" width="14" height="2" fill="#1D3557"/>
<rect x="619" y="561" width="15" height="2" fill="#1D3557"/>
<rect x="622" y="557" width="12" height="2" fill="#1D3557"/>
<rect x="624" y="555" width="10" height="2" fill="#1D3557"/>
<rect x="623" y="553" width="12" height="2" fill="#1D3557"/>
<rect x="622" y="550" width="11" height="2" fill="#1D3557"/>
<rect x="622" y="548" width="15" height="2" fill="#1D3557"/>
<rect x="613" y="543" width="25" height="2" fill="#1D3557"/>
<rect x="611" y="542" width="25" height="2" fill="#1D3557"/>
<rect x="618" y="574" width="12" height="2" fill="#1D3557"/>
<rect x="638" y="572" width="11" height="2" fill="#1D3557"/>
<rect x="638" y="572" width="11" height="2" fill="#1D3557"/>
<rect x="639" y="570" width="11" height="2" fill="#1D3557"/>
<rect x="665" y="572" width="14" height="2" fill="#1D3557"/>
<rect x="692" y="572" width="13" height="2" fill="#1D3557"/>
<rect x="713" y="572" width="12" height="2" fill="#1D3557"/>
<rect x="711" y="565" width="12" height="2" fill="#1D3557"/>
<rect x="711" y="561" width="12" height="2" fill="#1D3557"/>
<rect x="711" y="557" width="12" height="2" fill="#1D3557"/>
<rect x="709" y="540" width="14" height="5" fill="#1D3557"/>
<rect x="709" y="554" width="13" height="3" fill="#1D3557"/>
<rect x="708" y="548" width="15" height="4" fill="#1D3557"/>
<rect x="738" y="572" width="15" height="2" fill="#1D3557"/>
<rect x="771" y="572" width="15" height="2" fill="#1D3557"/>
<rect x="797" y="572" width="13" height="2" fill="#1D3557"/>
<rect x="829" y="572" width="18" height="2" fill="#1D3557"/>
<rect x="859" y="572" width="15" height="2" fill="#1D3557"/>
<rect x="860" y="573" width="17" height="2" fill="#1D3557"/>
<rect x="862" y="578" width="19" height="2" fill="#1D3557"/>
<rect x="864" y="580" width="17" height="2" fill="#1D3557"/>
<rect x="884" y="572" width="19" height="2" fill="#1D3557"/>
<rect x="883" y="573" width="20" height="2" fill="#1D3557"/>
<rect x="886" y="577" width="20" height="2" fill="#1D3557"/>
<rect x="888" y="579" width="19" height="2" fill="#1D3557"/>
<rect x="891" y="581" width="15" height="2" fill="#1D3557"/>
<rect x="891" y="584" width="18" height="2" fill="#1D3557"/>
<rect x="937" y="572" width="10" height="2" fill="#1D3557"/>
<rect x="919" y="572" width="10" height="2" fill="#1D3557"/>
<rect x="919" y="570" width="11" height="2" fill="#1D3557"/>
<rect x="921" y="562" width="17" height="2" fill="#1D3557"/>
<rect x="920" y="560" width="17" height="2" fill="#1D3557"/>
<rect x="919" y="557" width="17" height="2" fill="#1D3557"/>
<rect x="918" y="555" width="17" height="2" fill="#1D3557"/>
<rect x="917" y="554" width="17" height="2" fill="#1D3557"/>
<rect x="921" y="565" width="21" height="2" fill="#1D3557"/>
<rect x="976" y="572" width="16" height="2" fill="#1D3557"/>
<rect x="426" y="583" width="15" height="2" fill="#1D3557"/>
<rect x="428" y="581" width="12" height="2" fill="#1D3557"/>
<rect x="429" y="579" width="12" height="2" fill="#1D3557"/>
<rect x="429" y="574" width="17" height="2" fill="#1D3557"/>
<rect x="429" y="570" width="18" height="2" fill="#1D3557"/>
<rect x="433" y="565" width="15" height="2" fill="#1D3557"/>
<rect x="439" y="561" width="15" height="2" fill="#1D3557"/>
<rect x="441" y="557" width="13" height="2" fill="#1D3557"/>
<rect x="444" y="555" width="12" height="2" fill="#1D3557"/>
<rect x="447" y="551" width="15" height="2" fill="#1D3557"/>
<rect x="450" y="549" width="12" height="2" fill="#1D3557"/>
<rect x="453" y="547" width="12" height="2" fill="#1D3557"/>
<rect x="465" y="547" width="12" height="2" fill="#1D3557"/>
<rect x="476" y="546" width="18" height="2" fill="#1D3557"/>
<rect x="456" y="548" width="16" height="2" fill="#1D3557"/>
<rect x="489" y="543" width="16" height="2" fill="#1D3557"/>
<rect x="473" y="542" width="16" height="3" fill="#1D3557"/>
<rect x="488" y="541" width="16" height="2" fill="#1D3557"/>
<rect x="461" y="543" width="16" height="2" fill="#1D3557"/>
<rect x="473" y="547" width="12" height="2" fill="#1D3557"/>
<rect x="462" y="579" width="16" height="8" fill="#1D3557"/>
<rect x="489" y="579" width="12" height="8" fill="#1D3557"/>
<rect x="521" y="582" width="12" height="2" fill="#1D3557"/>
<rect x="521" y="580" width="14" height="2" fill="#1D3557"/>
<rect x="521" y="578" width="14" height="2" fill="#1D3557"/>
<rect x="523" y="574" width="12" height="2" fill="#1D3557"/>
<rect x="542" y="582" width="13" height="2" fill="#1D3557"/>
<rect x="567" y="582" width="14" height="2" fill="#1D3557"/>
<rect x="595" y="582" width="13" height="2" fill="#1D3557"/>
<rect x="617" y="582" width="11" height="2" fill="#1D3557"/>
<rect x="635" y="582" width="14" height="2" fill="#1D3557"/>
<rect x="664" y="582" width="15" height="2" fill="#1D3557"/>
<rect x="663" y="591" width="16" height="2" fill="#1D3557"/>
<rect x="662" y="588" width="18" height="2" fill="#1D3557"/>
<rect x="664" y="584" width="15" height="2" fill="#1D3557"/>
<rect x="665" y="580" width="13" height="2" fill="#1D3557"/>
<rect x="664" y="578" width="15" height="2" fill="#1D3557"/>
<rect x="664" y="574" width="16" height="2" fill="#1D3557"/>
<rect x="665" y="570" width="14" height="2" fill="#1D3557"/>
<rect x="690" y="590" width="14" height="2" fill="#1D3557"/>
<rect x="715" y="590" width="14" height="2" fill="#1D3557"/>
<rect x="715" y="589" width="14" height="2" fill="#1D3557"/>
<rect x="714" y="584" width="14" height="2" fill="#1D3557"/>
<rect x="713" y="580" width="14" height="2" fill="#1D3557"/>
<rect x="713" y="578" width="14" height="2" fill="#1D3557"/>
<rect x="712" y="573" width="14" height="2" fill="#1D3557"/>
<rect x="712" y="570" width="14" height="2" fill="#1D3557"/>
<rect x="690" y="588" width="14" height="2" fill="#1D3557"/>
<rect x="690" y="580" width="14" height="2" fill="#1D3557"/>
<rect x="690" y="578" width="14" height="2" fill="#1D3557"/>
<rect x="690" y="573" width="14" height="2" fill="#1D3557"/>
<rect x="691" y="570" width="14" height="2" fill="#1D3557"/>
<rect x="692" y="565" width="14" height="2" fill="#1D3557"/>
<rect x="691" y="561" width="14" height="2" fill="#1D3557"/>
<rect x="690" y="557" width="14" height="2" fill="#1D3557"/>
<rect x="692" y="554" width="14" height="3" fill="#1D3557"/>
<rect x="692" y="548" width="14" height="4" fill="#1D3557"/>
<rect x="692" y="541" width="14" height="4" fill="#1D3557"/>
<rect x="692" y="538" width="15" height="2" fill="#1D3557"/>
<rect x="693" y="536" width="13" height="2" fill="#1D3557"/>
<rect x="693" y="531" width="13" height="2" fill="#1D3557"/>
<rect x="696" y="527" width="13" height="2" fill="#1D3557"/>
<rect x="700" y="526" width="29" height="2" fill="#1D3557"/>
<rect x="705" y="522" width="23" height="2" fill="#1D3557"/>
<rect x="706" y="520" width="21" height="2" fill="#1D3557"/>
<rect x="703" y="518" width="13" height="2" fill="#1D3557"/>
<rect x="678" y="517" width="37" height="2" fill="#1D3557"/>
<rect x="703" y="524" width="13" height="2" fill="#1D3557"/>
<rect x="670" y="514" width="131" height="3" fill="#1D3557"/>
<rect x="690" y="584" width="14" height="2" fill="#1D3557"/>
<rect x="663" y="590" width="16" height="2" fill="#1D3557"/>
<rect x="689" y="582" width="17" height="2" fill="#1D3557"/>
<rect x="713" y="582" width="15" height="2" fill="#1D3557"/>
<rect x="739" y="582" width="18" height="2" fill="#1D3557"/>
<rect x="776" y="582" width="14" height="2" fill="#1D3557"/>
<rect x="800" y="582" width="13" height="2" fill="#1D3557"/>
<rect x="802" y="584" width="12" height="2" fill="#1D3557"/>
<rect x="801" y="580" width="12" height="2" fill="#1D3557"/>
<rect x="800" y="574" width="12" height="2" fill="#1D3557"/>
<rect x="797" y="570" width="12" height="2" fill="#1D3557"/>
<rect x="797" y="565" width="12" height="2" fill="#1D3557"/>
<rect x="796" y="561" width="12" height="2" fill="#1D3557"/>
<rect x="793" y="557" width="13" height="2" fill="#1D3557"/>
<rect x="794" y="555" width="12" height="2" fill="#1D3557"/>
<rect x="792" y="548" width="12" height="2" fill="#1D3557"/>
<rect x="803" y="548" width="18" height="2" fill="#1D3557"/>
<rect x="807" y="550" width="16" height="2" fill="#1D3557"/>
<rect x="791" y="543" width="19" height="2" fill="#1D3557"/>
<rect x="790" y="542" width="22" height="2" fill="#1D3557"/>
<rect x="789" y="538" width="20" height="2" fill="#1D3557"/>
<rect x="787" y="536" width="18" height="2" fill="#1D3557"/>
<rect x="781" y="532" width="19" height="2" fill="#1D3557"/>
<rect x="774" y="530" width="12" height="3" fill="#1D3557"/>
<rect x="772" y="528" width="15" height="3" fill="#1D3557"/>
<rect x="799" y="578" width="13" height="2" fill="#1D3557"/>
<rect x="844" y="582" width="13" height="2" fill="#1D3557"/>
<rect x="843" y="580" width="13" height="2" fill="#1D3557"/>
<rect x="845" y="584" width="14" height="2" fill="#1D3557"/>
<rect x="845" y="588" width="13" height="2" fill="#1D3557"/>
<rect x="847" y="590" width="13" height="2" fill="#1D3557"/>
<rect x="828" y="582" width="11" height="2" fill="#1D3557"/>
<rect x="867" y="582" width="14" height="2" fill="#1D3557"/>
<rect x="868" y="584" width="14" height="2" fill="#1D3557"/>
<rect x="868" y="590" width="18" height="2" fill="#1D3557"/>
<rect x="870" y="586" width="14" height="4" fill="#1D3557"/>
<rect x="891" y="582" width="17" height="2" fill="#1D3557"/>
<rect x="891" y="588" width="18" height="2" fill="#1D3557"/>
<rect x="894" y="590" width="18" height="2" fill="#1D3557"/>
<rect x="943" y="582" width="13" height="2" fill="#1D3557"/>
<rect x="919" y="582" width="10" height="2" fill="#1D3557"/>
<rect x="947" y="592" width="14" height="2" fill="#1D3557"/>
<rect x="919" y="592" width="10" height="2" fill="#1D3557"/>
<rect x="919" y="589" width="10" height="2" fill="#1D3557"/>
<rect x="919" y="584" width="10" height="2" fill="#1D3557"/>
<rect x="920" y="580" width="8" height="2" fill="#1D3557"/>
<rect x="919" y="578" width="10" height="2" fill="#1D3557"/>
<rect x="918" y="573" width="12" height="2" fill="#1D3557"/>
<rect x="920" y="590" width="8" height="2" fill="#1D3557"/>
<rect x="982" y="582" width="15" height="2" fill="#1D3557"/>
<rect x="423" y="592" width="12" height="2" fill="#1D3557"/>
<rect x="424" y="590" width="17" height="2" fill="#1D3557"/>
<rect x="423" y="585" width="19" height="2" fill="#1D3557"/>
<rect x="458" y="590" width="15" height="4" fill="#1D3557"/>
<rect x="490" y="590" width="12" height="4" fill="#1D3557"/>
<rect x="521" y="592" width="11" height="2" fill="#1D3557"/>
<rect x="521" y="590" width="11" height="2" fill="#1D3557"/>
<rect x="521" y="585" width="11" height="2" fill="#1D3557"/>
<rect x="521" y="583" width="12" height="2" fill="#1D3557"/>
<rect x="542" y="592" width="14" height="2" fill="#1D3557"/>
<rect x="542" y="590" width="14" height="2" fill="#1D3557"/>
<rect x="542" y="585" width="14" height="2" fill="#1D3557"/>
<rect x="542" y="584" width="14" height="2" fill="#1D3557"/>
<rect x="541" y="580" width="14" height="2" fill="#1D3557"/>
<rect x="540" y="578" width="15" height="2" fill="#1D3557"/>
<rect x="543" y="574" width="12" height="2" fill="#1D3557"/>
<rect x="544" y="570" width="13" height="2" fill="#1D3557"/>
<rect x="545" y="565" width="14" height="2" fill="#1D3557"/>
<rect x="547" y="561" width="13" height="2" fill="#1D3557"/>
<rect x="547" y="557" width="14" height="2" fill="#1D3557"/>
<rect x="546" y="555" width="14" height="2" fill="#1D3557"/>
<rect x="544" y="553" width="16" height="2" fill="#1D3557"/>
<rect x="540" y="551" width="18" height="2" fill="#1D3557"/>
<rect x="537" y="548" width="21" height="3" fill="#1D3557"/>
<rect x="567" y="592" width="13" height="2" fill="#1D3557"/>
<rect x="567" y="590" width="13" height="2" fill="#1D3557"/>
<rect x="567" y="585" width="13" height="2" fill="#1D3557"/>
<rect x="567" y="583" width="13" height="2" fill="#1D3557"/>
<rect x="567" y="580" width="14" height="2" fill="#1D3557"/>
<rect x="568" y="579" width="13" height="2" fill="#1D3557"/>
<rect x="568" y="574" width="14" height="2" fill="#1D3557"/>
<rect x="569" y="570" width="14" height="2" fill="#1D3557"/>
<rect x="570" y="565" width="14" height="2" fill="#1D3557"/>
<rect x="571" y="561" width="14" height="2" fill="#1D3557"/>
<rect x="572" y="557" width="14" height="2" fill="#1D3557"/>
<rect x="573" y="556" width="14" height="2" fill="#1D3557"/>
<rect x="573" y="554" width="14" height="2" fill="#1D3557"/>
<rect x="574" y="550" width="14" height="2" fill="#1D3557"/>
<rect x="576" y="548" width="14" height="2" fill="#1D3557"/>
<rect x="577" y="543" width="13" height="2" fill="#1D3557"/>
<rect x="573" y="541" width="17" height="2" fill="#1D3557"/>
<rect x="595" y="592" width="13" height="2" fill="#1D3557"/>
<rect x="594" y="590" width="14" height="2" fill="#1D3557"/>
<rect x="595" y="585" width="13" height="2" fill="#1D3557"/>
<rect x="617" y="584" width="12" height="2" fill="#1D3557"/>
<rect x="617" y="581" width="12" height="2" fill="#1D3557"/>
<rect x="617" y="579" width="13" height="2" fill="#1D3557"/>
<rect x="617" y="578" width="13" height="2" fill="#1D3557"/>
<rect x="594" y="583" width="14" height="2" fill="#1D3557"/>
<rect x="595" y="580" width="13" height="2" fill="#1D3557"/>
<rect x="594" y="578" width="14" height="2" fill="#1D3557"/>
<rect x="617" y="592" width="12" height="2" fill="#1D3557"/>
<rect x="617" y="590" width="12" height="2" fill="#1D3557"/>
<rect x="617" y="588" width="12" height="2" fill="#1D3557"/>
<rect x="635" y="592" width="13" height="2" fill="#1D3557"/>
<rect x="635" y="590" width="13" height="2" fill="#1D3557"/>
<rect x="635" y="589" width="14" height="2" fill="#1D3557"/>
<rect x="635" y="584" width="14" height="2" fill="#1D3557"/>
<rect x="634" y="580" width="15" height="2" fill="#1D3557"/>
<rect x="635" y="578" width="14" height="2" fill="#1D3557"/>
<rect x="636" y="574" width="13" height="2" fill="#1D3557"/>
<rect x="640" y="565" width="13" height="2" fill="#1D3557"/>
<rect x="641" y="561" width="13" height="2" fill="#1D3557"/>
<rect x="642" y="557" width="13" height="2" fill="#1D3557"/>
<rect x="643" y="555" width="13" height="2" fill="#1D3557"/>
<rect x="644" y="553" width="13" height="2" fill="#1D3557"/>
<rect x="647" y="550" width="13" height="2" fill="#1D3557"/>
<rect x="648" y="548" width="13" height="2" fill="#1D3557"/>
<rect x="650" y="543" width="13" height="2" fill="#1D3557"/>
<rect x="645" y="536" width="21" height="4" fill="#1D3557"/>
<rect x="650" y="536" width="15" height="2" fill="#1D3557"/>
<rect x="650" y="531" width="15" height="2" fill="#1D3557"/>
<rect x="648" y="526" width="17" height="3" fill="#1D3557"/>
<rect x="649" y="521" width="16" height="2" fill="#1D3557"/>
<rect x="647" y="519" width="19" height="2" fill="#1D3557"/>
<rect x="645" y="517" width="21" height="2" fill="#1D3557"/>
<rect x="644" y="515" width="22" height="2" fill="#1D3557"/>
<rect x="614" y="513" width="41" height="7" fill="#1D3557"/>
<rect x="651" y="525" width="14" height="2" fill="#1D3557"/>
<rect x="651" y="541" width="13" height="2" fill="#1D3557"/>
<rect x="663" y="592" width="16" height="2" fill="#1D3557"/>
<rect x="689" y="592" width="16" height="2" fill="#1D3557"/>
<rect x="712" y="592" width="18" height="2" fill="#1D3557"/>
<rect x="738" y="592" width="23" height="2" fill="#1D3557"/>
<rect x="778" y="592" width="17" height="2" fill="#1D3557"/>
<rect x="802" y="592" width="12" height="2" fill="#1D3557"/>
<rect x="802" y="589" width="12" height="3" fill="#1D3557"/>
<rect x="846" y="592" width="15" height="2" fill="#1D3557"/>
<rect x="825" y="592" width="11" height="2" fill="#1D3557"/>
<rect x="871" y="592" width="14" height="2" fill="#1D3557"/>
<rect x="894" y="592" width="18" height="2" fill="#1D3557"/>
<rect x="987" y="592" width="16" height="2" fill="#1D3557"/>
<rect x="984" y="591" width="20" height="2" fill="#1D3557"/>
<rect x="983" y="589" width="20" height="2" fill="#1D3557"/>
<rect x="983" y="584" width="17" height="2" fill="#1D3557"/>
<rect x="980" y="580" width="16" height="2" fill="#1D3557"/>
<rect x="978" y="578" width="16" height="2" fill="#1D3557"/>
<rect x="974" y="570" width="16" height="2" fill="#1D3557"/>
<rect x="970" y="565" width="16" height="2" fill="#1D3557"/>
<rect x="962" y="562" width="21" height="2" fill="#1D3557"/>
<rect x="960" y="560" width="21" height="2" fill="#1D3557"/>
<rect x="956" y="557" width="16" height="2" fill="#1D3557"/>
<rect x="953" y="556" width="16" height="2" fill="#1D3557"/>
<rect x="951" y="554" width="17" height="2" fill="#1D3557"/>
<rect x="975" y="574" width="18" height="2" fill="#1D3557"/>
<rect x="955" y="558" width="23" height="2" fill="#1D3557"/>
<rect x="549" y="540" width="41" height="2" fill="#1D3557"/>
<rect x="571" y="528" width="36" height="2" fill="#1D3557"/>
<rect x="589" y="539" width="64" height="3" fill="#1D3557"/>
<rect x="651" y="540" width="13" height="2" fill="#1D3557"/>
<rect x="671" y="540" width="48" height="2" fill="#1D3557"/>
<rect x="677" y="542" width="10" height="1" fill="#1D3557"/>
<rect x="689" y="542" width="10" height="1" fill="#1D3557"/>
<rect x="680" y="536" width="13" height="4" fill="#1D3557"/>
<rect x="731" y="536" width="13" height="4" fill="#1D3557"/>
<rect x="723" y="540" width="91" height="2" fill="#1D3557"/>
<rect x="821" y="540" width="20" height="2" fill="#1D3557"/>
<rect x="875" y="540" width="30" height="2" fill="#1D3557"/>
<rect x="574" y="530" width="32" height="2" fill="#1D3557"/>
<rect x="567" y="532" width="36" height="2" fill="#1D3557"/>
<rect x="577" y="536" width="16" height="2" fill="#1D3557"/>
<rect x="588" y="538" width="22" height="2" fill="#1D3557"/>
<rect x="606" y="539" width="22" height="2" fill="#1D3557"/>
<rect x="567" y="527" width="43" height="2" fill="#1D3557"/>
<rect x="567" y="526" width="51" height="2" fill="#1D3557"/>
<rect x="648" y="529" width="71" height="2" fill="#1D3557"/>
<rect x="744" y="529" width="42" height="2" fill="#1D3557"/>
<rect x="812" y="529" width="24" height="2" fill="#1D3557"/>
<rect x="854" y="529" width="29" height="1" fill="#1D3557"/>
<rect x="855" y="530" width="29" height="1" fill="#1D3557"/>
<rect x="599" y="533" width="80" height="3" fill="#1D3557"/>
<rect x="692" y="533" width="30" height="3" fill="#1D3557"/>
<rect x="722" y="533" width="21" height="3" fill="#1D3557"/>
<rect x="725" y="533" width="21" height="2" fill="#1D3557"/>
<rect x="725" y="534" width="21" height="2" fill="#1D3557"/>
<rect x="753" y="534" width="21" height="2" fill="#1D3557"/>
<rect x="735" y="533" width="21" height="2" fill="#1D3557"/>
<rect x="752" y="533" width="50" height="2" fill="#1D3557"/>
<rect x="756" y="534" width="45" height="2" fill="#1D3557"/>
<rect x="816" y="533" width="21" height="3" fill="#1D3557"/>
<rect x="816" y="533" width="21" height="3" fill="#1D3557"/>
<rect x="835" y="533" width="59" height="3" fill="#1D3557"/>
<rect x="710" y="523" width="20" height="3" fill="#1D3557"/>
<rect x="751" y="523" width="110" height="3" fill="#1D3557"/>
<rect x="666" y="517" width="14" height="3" fill="#1D3557"/>
<rect x="712" y="517" width="19" height="3" fill="#1D3557"/>
<rect x="725" y="516" width="81" height="3" fill="#1D3557"/>
<rect x="754" y="517" width="28" height="3" fill="#1D3557"/>
<rect x="798" y="517" width="21" height="3" fill="#1D3557"/>
<rect x="789" y="513" width="18" height="2" fill="#1D3557"/>
<rect x="795" y="515" width="18" height="2" fill="#1D3557"/>
<rect x="654" y="499" width="124" height="3" fill="#1D3557"/>
<rect x="688" y="481" width="55" height="2" fill="#1D3557"/>
<rect x="683" y="472" width="104" height="2" fill="#1D3557"/>
<rect x="657" y="472" width="13" height="2" fill="#1D3557"/>
<rect x="663" y="473" width="13" height="2" fill="#1D3557"/>
<rect x="758" y="481" width="19" height="2" fill="#1D3557"/>
<rect x="754" y="482" width="19" height="2" fill="#1D3557"/>
<rect x="664" y="481" width="11" height="2" fill="#1D3557"/>
<rect x="666" y="482" width="11" height="2" fill="#1D3557"/>
<rect x="660" y="476" width="120" height="2" fill="#1D3557"/>
<rect x="682" y="489" width="73" height="2" fill="#1D3557"/>
<rect x="665" y="485" width="108" height="2" fill="#1D3557"/>
<rect x="710" y="467" width="48" height="3" fill="#1D3557"/>
<rect x="654" y="467" width="48" height="3" fill="#1D3557"/>
<rect x="649" y="463" width="13" height="2" fill="#1D3557"/>
<rect x="653" y="464" width="13" height="2" fill="#1D3557"/>
<rect x="675" y="463" width="16" height="2" fill="#1D3557"/>
<rect x="704" y="463" width="16" height="2" fill="#1D3557"/>
<rect x="733" y="463" width="37" height="2" fill="#1D3557"/>
<rect x="768" y="467" width="21" height="3" fill="#1D3557"/>
<rect x="776" y="463" width="27" height="2" fill="#1D3557"/>
<rect x="773" y="464" width="27" height="2" fill="#1D3557"/>
<rect x="777" y="459" width="36" height="2" fill="#1D3557"/>
<rect x="786" y="454" width="28" height="2" fill="#1D3557"/>
<rect x="788" y="451" width="54" height="2" fill="#1D3557"/>
<rect x="819" y="448" width="206" height="2" fill="#1D3557"/>
<rect x="820" y="443" width="137" height="2" fill="#1D3557"/>
<rect x="665" y="494" width="99" height="2" fill="#1D3557"/>
<rect x="646" y="459" width="120" height="2" fill="#1D3557"/>
<rect x="629" y="454" width="22" height="2" fill="#1D3557"/>
<rect x="524" y="459" width="46" height="2" fill="#1D3557"/>
<rect x="535" y="456" width="35" height="2" fill="#1D3557"/>
<rect x="861" y="458" width="44" height="2" fill="#1D3557"/>
<rect x="861" y="455" width="33" height="2" fill="#1D3557"/>
<rect x="464" y="458" width="36" height="2" fill="#1D3557"/>
<rect x="482" y="455" width="18" height="2" fill="#1D3557"/>
<rect x="623" y="451" width="28" height="2" fill="#1D3557"/>
<rect x="383" y="448" width="267" height="2" fill="#1D3557"/>
<rect x="375" y="444" width="233" height="2" fill="#1D3557"/>
<rect x="613" y="444" width="32" height="2" fill="#1D3557"/>
<rect x="364" y="437" width="254" height="4" fill="#1D3557"/>
<rect x="355" y="432" width="193" height="2" fill="#1D3557"/>
<rect x="561" y="432" width="42" height="2" fill="#1D3557"/>
<rect x="368" y="422" width="142" height="4" fill="#1D3557"/>
<rect x="524" y="422" width="72" height="4" fill="#1D3557"/>
<rect x="607" y="422" width="16" height="4" fill="#1D3557"/>
<rect x="654" y="422" width="26" height="4" fill="#1D3557"/>
<rect x="654" y="422" width="26" height="4" fill="#1D3557"/>
<rect x="693" y="422" width="23" height="4" fill="#1D3557"/>
<rect x="740" y="422" width="31" height="4" fill="#1D3557"/>
<rect x="801" y="422" width="32" height="4" fill="#1D3557"/>
<rect x="848" y="423" width="12" height="4" fill="#1D3557"/>
<rect x="872" y="423" width="57" height="4" fill="#1D3557"/>
<rect x="938" y="423" width="34" height="4" fill="#1D3557"/>
<rect x="992" y="423" width="97" height="4" fill="#1D3557"/>
<rect x="345" y="415" width="264" height="2" fill="#1D3557"/>
<rect x="337" y="404" width="120" height="4" fill="#1D3557"/>
<rect x="521" y="404" width="143" height="4" fill="#1D3557"/>
<rect x="469" y="397" width="106" height="2" fill="#1D3557"/>
<rect x="646" y="397" width="140" height="2" fill="#1D3557"/>
<rect x="860" y="397" width="238" height="2" fill="#1D3557"/>
<rect x="341" y="390" width="229" height="2" fill="#1D3557"/>
<rect x="642" y="390" width="167" height="2" fill="#1D3557"/>
<rect x="887" y="390" width="211" height="2" fill="#1D3557"/>
<rect x="337" y="377" width="275" height="4" fill="#1D3557"/>
<rect x="622" y="377" width="238" height="4" fill="#1D3557"/>
<rect x="878" y="377" width="214" height="4" fill="#1D3557"/>
<rect x="364" y="354" width="164" height="2" fill="#1D3557"/>
<rect x="564" y="354" width="21" height="2" fill="#1D3557"/>
<rect x="641" y="354" width="112" height="2" fill="#1D3557"/>
<rect x="643" y="182" width="110" height="4" fill="#1D3557"/>
<rect x="612" y="190" width="180" height="4" fill="#1D3557"/>
<rect x="580" y="204" width="264" height="2" fill="#1D3557"/>
<rect x="593" y="198" width="243" height="2" fill="#1D3557"/>
<rect x="734" y="213" width="148" height="4" fill="#1D3557"/>
<rect x="575" y="213" width="136" height="4" fill="#1D3557"/>
<rect x="853" y="221" width="50" height="2" fill="#1D3557"/>
<rect x="562" y="222" width="100" height="2" fill="#1D3557"/>
<rect x="564" y="235" width="380" height="2" fill="#1D3557"/>
<rect x="528" y="235" width="28" height="2" fill="#1D3557"/>
<rect x="536" y="229" width="92" height="4" fill="#1D3557"/>
<rect x="661" y="229" width="92" height="4" fill="#1D3557"/>
<rect x="780" y="229" width="138" height="4" fill="#1D3557"/>
<rect x="679" y="222" width="165" height="2" fill="#1D3557"/>
<rect x="732" y="246" width="219" height="2" fill="#1D3557"/>
<rect x="522" y="241" width="113" height="2" fill="#1D3557"/>
<rect x="510" y="245" width="125" height="2" fill="#1D3557"/>
<rect x="686" y="241" width="109" height="2" fill="#1D3557"/>
<rect x="827" y="241" width="25" height="2" fill="#1D3557"/>
<rect x="869" y="241" width="69" height="2" fill="#1D3557"/>
<rect x="894" y="257" width="67" height="2" fill="#1D3557"/>
<rect x="860" y="264" width="115" height="2" fill="#1D3557"/>
<rect x="496" y="251" width="455" height="4" fill="#1D3557"/>
<rect x="645" y="245" width="62" height="2" fill="#1D3557"/>
<rect x="685" y="264" width="62" height="2" fill="#1D3557"/>
<rect x="704" y="275" width="62" height="4" fill="#1D3557"/>
<rect x="728" y="315" width="105" height="2" fill="#1D3557"/>
<rect x="823" y="275" width="62" height="4" fill="#1D3557"/>
<rect x="474" y="269" width="512" height="2" fill="#1D3557"/>
<rect x="487" y="264" width="178" height="2" fill="#1D3557"/>
<rect x="769" y="264" width="39" height="2" fill="#1D3557"/>
<rect x="519" y="257" width="162" height="2" fill="#1D3557"/>
<rect x="690" y="257" width="112" height="2" fill="#1D3557"/>
<rect x="816" y="257" width="71" height="2" fill="#1D3557"/>
<rect x="460" y="283" width="273" height="2" fill="#1D3557"/>
<rect x="474" y="275" width="200" height="4" fill="#1D3557"/>
<rect x="795" y="275" width="18" height="4" fill="#1D3557"/>
<rect x="894" y="275" width="101" height="4" fill="#1D3557"/>
<rect x="748" y="283" width="250" height="2" fill="#1D3557"/>
<rect x="448" y="295" width="273" height="4" fill="#1D3557"/>
<rect x="741" y="295" width="273" height="4" fill="#1D3557"/>
<rect x="433" y="303" width="265" height="2" fill="#1D3557"/>
<rect x="512" y="315" width="195" height="2" fill="#1D3557"/>
<rect x="848" y="315" width="171" height="2" fill="#1D3557"/>
<rect x="734" y="308" width="291" height="2" fill="#1D3557"/>
<rect x="407" y="324" width="276" height="4" fill="#1D3557"/>
<rect x="718" y="324" width="310" height="4" fill="#1D3557"/>
<rect x="387" y="336" width="303" height="2" fill="#1D3557"/>
<rect x="720" y="336" width="77" height="2" fill="#1D3557"/>
<rect x="847" y="336" width="77" height="2" fill="#1D3557"/>
<rect x="957" y="336" width="99" height="2" fill="#1D3557"/>
<rect x="372" y="345" width="126" height="4" fill="#1D3557"/>
<rect x="537" y="345" width="25" height="4" fill="#1D3557"/>
<rect x="422" y="315" width="72" height="2" fill="#1D3557"/>
<rect x="582" y="345" width="77" height="4" fill="#1D3557"/>
<rect x="668" y="345" width="105" height="4" fill="#1D3557"/>
<rect x="797" y="345" width="267" height="4" fill="#1D3557"/>
<rect x="786" y="354" width="291" height="2" fill="#1D3557"/>
<rect x="616" y="365" width="473" height="4" fill="#1D3557"/>
<rect x="697" y="385" width="377" height="2" fill="#1D3557"/>
<rect x="681" y="404" width="422" height="4" fill="#1D3557"/>
<rect x="1004" y="414" width="94" height="2" fill="#1D3557"/>
<rect x="938" y="414" width="49" height="2" fill="#1D3557"/>
<rect x="890" y="414" width="32" height="2" fill="#1D3557"/>
<rect x="837" y="414" width="32" height="2" fill="#1D3557"/>
<rect x="616" y="414" width="196" height="2" fill="#1D3557"/>
<rect x="938" y="432" width="128" height="2" fill="#1D3557"/>
<rect x="883" y="432" width="28" height="2" fill="#1D3557"/>
<rect x="832" y="432" width="20" height="2" fill="#1D3557"/>
<rect x="796" y="432" width="25" height="2" fill="#1D3557"/>
<rect x="740" y="432" width="32" height="2" fill="#1D3557"/>
<rect x="695" y="432" width="19" height="2" fill="#1D3557"/>
<rect x="657" y="432" width="23" height="2" fill="#1D3557"/>
<rect x="613" y="432" width="19" height="2" fill="#1D3557"/>
<rect x="626" y="437" width="13" height="4" fill="#1D3557"/>
<rect x="864" y="437" width="170" height="4" fill="#1D3557"/>
<rect x="826" y="437" width="15" height="4" fill="#1D3557"/>
<rect x="796" y="437" width="15" height="4" fill="#1D3557"/>
<rect x="740" y="437" width="22" height="4" fill="#1D3557"/>
<rect x="696" y="437" width="20" height="4" fill="#1D3557"/>
<rect x="661" y="437" width="21" height="4" fill="#1D3557"/>
<rect x="663" y="443" width="21" height="2" fill="#1D3557"/>
<rect x="696" y="443" width="21" height="2" fill="#1D3557"/>
<rect x="738" y="443" width="21" height="2" fill="#1D3557"/>
<rect x="792" y="443" width="14" height="2" fill="#1D3557"/>
<rect x="664" y="448" width="24" height="2" fill="#1D3557"/>
<rect x="696" y="448" width="24" height="2" fill="#1D3557"/>
<rect x="735" y="448" width="24" height="2" fill="#1D3557"/>
<rect x="789" y="448" width="24" height="2" fill="#1D3557"/>
<rect x="663" y="454" width="24" height="2" fill="#1D3557"/>
<rect x="696" y="454" width="24" height="2" fill="#1D3557"/>
<rect x="734" y="454" width="23" height="2" fill="#1D3557"/>
<rect x="664" y="451" width="25" height="2" fill="#1D3557"/>
<rect x="697" y="451" width="22" height="2" fill="#1D3557"/>
<rect x="736" y="451" width="21" height="2" fill="#1D3557"/>
<rect x="350" y="365" width="239" height="4" fill="#1D3557"/>
<rect x="929" y="459" width="50" height="2" fill="#1D3557"/>
<rect x="929" y="456" width="26" height="2" fill="#1D3557"/>
<rect x="453" y="603" width="11" height="3" fill="white"/>
<rect x="453" y="612" width="11" height="3" fill="white"/>
<rect x="453" y="621" width="11" height="3" fill="white"/>
<rect x="453" y="630" width="11" height="3" fill="white"/>
<rect x="495" y="601" width="11" height="3" fill="white"/>
<rect x="495" y="610" width="11" height="3" fill="white"/>
<rect x="495" y="619" width="11" height="3" fill="white"/>
<rect x="495" y="628" width="11" height="3" fill="white"/>
<rect x="495" y="635" width="11" height="3" fill="white"/>
<rect x="544" y="601" width="11" height="3" fill="white"/>
<rect x="544" y="610" width="11" height="3" fill="white"/>
<rect x="544" y="618" width="11" height="3" fill="white"/>
<rect x="544" y="626" width="11" height="3" fill="white"/>
<rect x="544" y="635" width="11" height="3" fill="white"/>
<rect x="544" y="643" width="11" height="3" fill="white"/>
<rect x="544" y="652" width="11" height="3" fill="white"/>
<rect x="618" y="600" width="11" height="3" fill="white"/>
<rect x="618" y="609" width="11" height="3" fill="white"/>
<rect x="618" y="617" width="11" height="3" fill="white"/>
<rect x="618" y="626" width="11" height="3" fill="white"/>
<rect x="618" y="634" width="11" height="3" fill="white"/>
<rect x="618" y="642" width="11" height="3" fill="white"/>
<rect x="663" y="600" width="14" height="3" fill="white"/>
<rect x="663" y="609" width="14" height="3" fill="white"/>
<rect x="663" y="617" width="14" height="3" fill="white"/>
<rect x="663" y="624" width="14" height="3" fill="white"/>
<rect x="663" y="632" width="14" height="3" fill="white"/>
<rect x="663" y="640" width="14" height="3" fill="white"/>
<rect x="707" y="603" width="15" height="3" fill="white"/>
<rect x="707" y="611" width="15" height="4" fill="white"/>
<rect x="707" y="620" width="15" height="4" fill="white"/>
<rect x="707" y="629" width="15" height="3" fill="white"/>
<rect x="707" y="636" width="15" height="3" fill="white"/>
<rect x="707" y="643" width="15" height="3" fill="white"/>
<rect x="746" y="603" width="12" height="4" fill="white"/>
<rect x="746" y="611" width="14" height="5" fill="white"/>
<rect x="746" y="620" width="14" height="4" fill="white"/>
<rect x="746" y="628" width="14" height="5" fill="white"/>
<rect x="746" y="637" width="14" height="4" fill="white"/>
<rect x="783" y="603" width="6" height="3" fill="white"/>
<rect x="783" y="612" width="7" height="3" fill="white"/>
<rect x="783" y="620" width="9" height="4" fill="white"/>
<rect x="783" y="628" width="10" height="5" fill="white"/>
<rect x="783" y="637" width="11" height="4" fill="white"/>
<rect x="814" y="601" width="8" height="3" fill="white"/>
<rect x="814" y="609" width="11" height="4" fill="white"/>
<rect x="814" y="617" width="12" height="5" fill="white"/>
<rect x="814" y="625" width="12" height="5" fill="white"/>
<rect x="814" y="634" width="12" height="4" fill="white"/>
<rect x="851" y="601" width="11" height="3" fill="white"/>
<rect x="851" y="608" width="13" height="5" fill="white"/>
<rect x="851" y="617" width="13" height="5" fill="white"/>
<rect x="851" y="625" width="13" height="5" fill="white"/>
<rect x="851" y="634" width="13" height="5" fill="white"/>
<rect x="851" y="642" width="13" height="5" fill="white"/>
<rect x="884" y="601" width="14" height="3" fill="white"/>
<rect x="888" y="608" width="11" height="4" fill="white"/>
<rect x="892" y="617" width="7" height="4" fill="white"/>
<rect x="891" y="625" width="8" height="4" fill="white"/>
<rect x="891" y="633" width="8" height="4" fill="white"/>
<rect x="939" y="600" width="11" height="3" fill="white"/>
<rect x="939" y="609" width="11" height="3" fill="white"/>
<rect x="939" y="617" width="11" height="3" fill="white"/>
<rect x="939" y="625" width="11" height="5" fill="white"/>
<rect x="939" y="634" width="11" height="3" fill="white"/>
<rect x="939" y="642" width="11" height="3" fill="white"/>
<rect x="570" y="602" width="10" height="3" fill="white"/>
<rect x="572" y="611" width="8" height="3" fill="white"/>
<rect x="572" y="619" width="8" height="3" fill="white"/>
<rect x="572" y="627" width="8" height="3" fill="white"/>
<rect x="572" y="634" width="8" height="3" fill="white"/>
<rect x="572" y="641" width="8" height="3" fill="white"/>
<rect x="977" y="603" width="11" height="3" fill="white"/>
<rect x="977" y="612" width="11" height="3" fill="white"/>
<rect x="977" y="620" width="11" height="3" fill="white"/>
<rect x="977" y="628" width="11" height="3" fill="white"/>
<rect x="977" y="637" width="11" height="3" fill="white"/>
<rect x="977" y="645" width="11" height="3" fill="white"/>
<rect x="977" y="654" width="11" height="3" fill="white"/>
<mask id="path-789-outside-1_65_21" maskUnits="userSpaceOnUse" x="419" y="59" width="603" height="101" fill="black">
<rect fill="white" x="419" y="59" width="603" height="101"/>
<path d="M436.562 64L451.375 109.5L467.375 64H481.75V155H470.5V118.688L471.438 80.6875L454.625 129.688H448L432.562 82L433.5 118.688V155H422.25V64H436.562ZM544.188 131.438H513.812L506.5 155H494.938L524.312 64H534L562.875 155H551.375L544.188 131.438ZM516.938 121.375H541.125L529.125 81.875L516.938 121.375ZM634.625 155H622.875L587.562 87L587.375 155H575.688V64H587.438L622.75 131.875L622.938 64H634.625V155ZM713.375 143.062C711.958 144.729 710.458 146.25 708.875 147.625C707.292 148.958 705.646 150.125 703.938 151.125C701.021 152.875 697.875 154.167 694.5 155C691.125 155.875 687.583 156.292 683.875 156.25C680.125 156.208 676.667 155.646 673.5 154.562C670.375 153.438 667.562 151.896 665.062 149.938C662.562 148.021 660.375 145.75 658.5 143.125C656.625 140.5 655.062 137.646 653.812 134.562C652.521 131.521 651.542 128.333 650.875 125C650.25 121.625 649.917 118.229 649.875 114.812V104.25C649.917 100.875 650.208 97.5208 650.75 94.1875C651.333 90.8125 652.208 87.5833 653.375 84.5C654.542 81.4167 656 78.5625 657.75 75.9375C659.5 73.2708 661.604 70.9583 664.062 69C666.479 67.0833 669.229 65.5625 672.312 64.4375C675.396 63.3125 678.854 62.75 682.688 62.75C686.938 62.75 690.854 63.4167 694.438 64.75C698.021 66.0417 701.146 67.8958 703.812 70.3125C706.479 72.7708 708.625 75.7292 710.25 79.1875C711.875 82.6042 712.875 86.4375 713.25 90.6875H701.812C701.354 88.0625 700.646 85.6458 699.688 83.4375C698.729 81.1875 697.479 79.2708 695.938 77.6875C694.354 76.1042 692.479 74.875 690.312 74C688.146 73.0833 685.625 72.625 682.75 72.625C680 72.625 677.562 73.1042 675.438 74.0625C673.312 74.9792 671.458 76.2292 669.875 77.8125C668.292 79.3958 666.979 81.25 665.938 83.375C664.896 85.4583 664.042 87.6667 663.375 90C662.708 92.3333 662.229 94.7083 661.938 97.125C661.646 99.5417 661.5 101.875 661.5 104.125V114.812C661.542 117.104 661.729 119.479 662.062 121.938C662.438 124.354 663 126.729 663.75 129.062C664.5 131.396 665.458 133.604 666.625 135.688C667.792 137.771 669.208 139.604 670.875 141.188C672.5 142.771 674.396 144.042 676.562 145C678.729 145.917 681.188 146.396 683.938 146.438C685.521 146.479 687.167 146.417 688.875 146.25C690.625 146.083 692.312 145.75 693.938 145.25C695.562 144.75 697.083 144.083 698.5 143.25C699.917 142.375 701.104 141.25 702.062 139.875L702.188 119.438H683.688V109.688H713.188L713.375 143.062ZM761.5 117.875H743.312V155H731.812V64H758.5C762.75 64.0833 766.75 64.6875 770.5 65.8125C774.25 66.9375 777.542 68.625 780.375 70.875C783.167 73.125 785.354 75.9583 786.938 79.375C788.562 82.75 789.375 86.7292 789.375 91.3125C789.375 94.2708 788.938 96.9792 788.062 99.4375C787.229 101.896 786.062 104.125 784.562 106.125C783.062 108.125 781.271 109.896 779.188 111.438C777.104 112.979 774.812 114.292 772.312 115.375L791.625 154.25L791.562 155H779.375L761.5 117.875ZM743.312 108.375H758.812C761.396 108.333 763.833 107.938 766.125 107.188C768.417 106.396 770.438 105.271 772.188 103.812C773.896 102.354 775.25 100.583 776.25 98.5C777.25 96.375 777.75 93.9375 777.75 91.1875C777.75 88.2708 777.271 85.7292 776.312 83.5625C775.354 81.3542 774.021 79.5 772.312 78C770.604 76.5417 768.562 75.4375 766.188 74.6875C763.854 73.9375 761.292 73.5417 758.5 73.5H743.312V108.375ZM867.438 114.75C867.396 118 867.104 121.292 866.562 124.625C866.062 127.917 865.271 131.104 864.188 134.188C863.104 137.271 861.708 140.146 860 142.812C858.333 145.479 856.333 147.812 854 149.812C851.667 151.812 848.979 153.396 845.938 154.562C842.938 155.688 839.562 156.25 835.812 156.25C832.062 156.25 828.667 155.688 825.625 154.562C822.625 153.396 819.958 151.812 817.625 149.812C815.292 147.812 813.271 145.479 811.562 142.812C809.854 140.104 808.458 137.208 807.375 134.125C806.25 131.042 805.417 127.854 804.875 124.562C804.333 121.271 804.042 118 804 114.75V104.375C804.042 101.125 804.312 97.8542 804.812 94.5625C805.354 91.2292 806.188 88.0208 807.312 84.9375C808.396 81.8542 809.771 78.9792 811.438 76.3125C813.146 73.6042 815.167 71.2292 817.5 69.1875C819.833 67.1875 822.5 65.625 825.5 64.5C828.542 63.3333 831.938 62.75 835.688 62.75C839.438 62.75 842.833 63.3333 845.875 64.5C848.917 65.625 851.604 67.1875 853.938 69.1875C856.271 71.1875 858.271 73.5417 859.938 76.25C861.646 78.9167 863.062 81.7917 864.188 84.875C865.271 87.9583 866.062 91.1667 866.562 94.5C867.104 97.8333 867.396 101.125 867.438 104.375V114.75ZM856 104.25C855.958 102.083 855.812 99.8333 855.562 97.5C855.312 95.125 854.896 92.7708 854.312 90.4375C853.688 88.1458 852.875 85.9583 851.875 83.875C850.875 81.75 849.625 79.875 848.125 78.25C846.625 76.6667 844.854 75.4167 842.812 74.5C840.771 73.5417 838.396 73.0625 835.688 73.0625C833.021 73.0625 830.667 73.5417 828.625 74.5C826.583 75.4583 824.812 76.7292 823.312 78.3125C821.812 79.9375 820.562 81.8125 819.562 83.9375C818.562 86.0208 817.771 88.2083 817.188 90.5C816.562 92.8333 816.104 95.1875 815.812 97.5625C815.562 99.8958 815.417 102.125 815.375 104.25V114.75C815.417 116.875 815.562 119.125 815.812 121.5C816.104 123.875 816.562 126.208 817.188 128.5C817.812 130.833 818.625 133.062 819.625 135.188C820.625 137.312 821.875 139.167 823.375 140.75C824.875 142.375 826.646 143.667 828.688 144.625C830.729 145.583 833.104 146.062 835.812 146.062C838.521 146.062 840.896 145.583 842.938 144.625C845.021 143.667 846.812 142.375 848.312 140.75C849.771 139.167 850.979 137.333 851.938 135.25C852.938 133.125 853.75 130.896 854.375 128.562C854.958 126.271 855.354 123.938 855.562 121.562C855.812 119.188 855.958 116.917 856 114.75V104.25ZM907.438 155L878.688 64H891.062L911.062 131.938L912.375 136.375L913.75 131.812L933.875 64H946.188L917.5 155H907.438ZM1012.06 112.938H974.062V145.188H1018.38V155H962.5V64H1017.81V73.875H974.062V103.125H1012.06V112.938Z"/>
</mask>
<path d="M436.562 64L439.415 63.0713L438.741 61H436.562V64ZM451.375 109.5L448.522 110.429L451.265 118.855L454.205 110.495L451.375 109.5ZM467.375 64V61H465.25L464.545 63.0048L467.375 64ZM481.75 64H484.75V61H481.75V64ZM481.75 155V158H484.75V155H481.75ZM470.5 155H467.5V158H470.5V155ZM470.5 118.688L467.501 118.614L467.5 118.65V118.688H470.5ZM471.438 80.6875L474.437 80.7615L468.6 79.7139L471.438 80.6875ZM454.625 129.688V132.688H456.767L457.463 130.661L454.625 129.688ZM448 129.688L445.146 130.611L445.818 132.688H448V129.688ZM432.562 82L435.417 81.076L429.563 82.0766L432.562 82ZM433.5 118.688H436.5V118.649L436.499 118.611L433.5 118.688ZM433.5 155V158H436.5V155H433.5ZM422.25 155H419.25V158H422.25V155ZM422.25 64V61H419.25V64H422.25ZM436.562 64L433.71 64.9287L448.522 110.429L451.375 109.5L454.228 108.571L439.415 63.0713L436.562 64ZM451.375 109.5L454.205 110.495L470.205 64.9952L467.375 64L464.545 63.0048L448.545 108.505L451.375 109.5ZM467.375 64V67H481.75V64V61H467.375V64ZM481.75 64H478.75V155H481.75H484.75V64H481.75ZM481.75 155V152H470.5V155V158H481.75V155ZM470.5 155H473.5V118.688H470.5H467.5V155H470.5ZM470.5 118.688L473.499 118.761L474.437 80.7615L471.438 80.6875L468.438 80.6135L467.501 118.614L470.5 118.688ZM471.438 80.6875L468.6 79.7139L451.787 128.714L454.625 129.688L457.463 130.661L474.275 81.6611L471.438 80.6875ZM454.625 129.688V126.688H448V129.688V132.688H454.625V129.688ZM448 129.688L450.854 128.764L435.417 81.076L432.562 82L429.708 82.924L445.146 130.611L448 129.688ZM432.562 82L429.563 82.0766L430.501 118.764L433.5 118.688L436.499 118.611L435.562 81.9234L432.562 82ZM433.5 118.688H430.5V155H433.5H436.5V118.688H433.5ZM433.5 155V152H422.25V155V158H433.5V155ZM422.25 155H425.25V64H422.25H419.25V155H422.25ZM422.25 64V67H436.562V64V61H422.25V64ZM544.188 131.438L547.057 130.562L546.409 128.438H544.188V131.438ZM513.812 131.438V128.438H511.602L510.947 130.548L513.812 131.438ZM506.5 155V158H508.71L509.365 155.889L506.5 155ZM494.938 155L492.083 154.078L490.817 158H494.938V155ZM524.312 64V61H522.128L521.458 63.0784L524.312 64ZM534 64L536.859 63.0927L536.195 61H534V64ZM562.875 155V158H566.974L565.734 154.093L562.875 155ZM551.375 155L548.506 155.875L549.154 158H551.375V155ZM516.938 121.375L514.071 120.491L512.872 124.375H516.938V121.375ZM541.125 121.375V124.375H545.172L543.995 120.503L541.125 121.375ZM529.125 81.875L531.995 81.003L529.147 71.6276L526.258 80.9905L529.125 81.875ZM544.188 131.438V128.438H513.812V131.438V134.438H544.188V131.438ZM513.812 131.438L510.947 130.548L503.635 154.111L506.5 155L509.365 155.889L516.678 132.327L513.812 131.438ZM506.5 155V152H494.938V155V158H506.5V155ZM494.938 155L497.792 155.922L527.167 64.9216L524.312 64L521.458 63.0784L492.083 154.078L494.938 155ZM524.312 64V67H534V64V61H524.312V64ZM534 64L531.141 64.9073L560.016 155.907L562.875 155L565.734 154.093L536.859 63.0927L534 64ZM562.875 155V152H551.375V155V158H562.875V155ZM551.375 155L554.244 154.125L547.057 130.562L544.188 131.438L541.318 132.313L548.506 155.875L551.375 155ZM516.938 121.375V124.375H541.125V121.375V118.375H516.938V121.375ZM541.125 121.375L543.995 120.503L531.995 81.003L529.125 81.875L526.255 82.747L538.255 122.247L541.125 121.375ZM529.125 81.875L526.258 80.9905L514.071 120.491L516.938 121.375L519.804 122.259L531.992 82.7595L529.125 81.875ZM634.625 155V158H637.625V155H634.625ZM622.875 155L620.213 156.383L621.053 158H622.875V155ZM587.562 87L590.225 85.6174L584.563 86.9917L587.562 87ZM587.375 155V158H590.367L590.375 155.008L587.375 155ZM575.688 155H572.688V158H575.688V155ZM575.688 64V61H572.688V64H575.688ZM587.438 64L590.099 62.6154L589.258 61H587.438V64ZM622.75 131.875L620.089 133.26L625.75 131.883L622.75 131.875ZM622.938 64V61H619.946L619.938 63.9917L622.938 64ZM634.625 64H637.625V61H634.625V64ZM634.625 155V152H622.875V155V158H634.625V155ZM622.875 155L625.537 153.617L590.225 85.6174L587.562 87L584.9 88.3826L620.213 156.383L622.875 155ZM587.562 87L584.563 86.9917L584.375 154.992L587.375 155L590.375 155.008L590.562 87.0083L587.562 87ZM587.375 155V152H575.688V155V158H587.375V155ZM575.688 155H578.688V64H575.688H572.688V155H575.688ZM575.688 64V67H587.438V64V61H575.688V64ZM587.438 64L584.776 65.3846L620.089 133.26L622.75 131.875L625.411 130.49L590.099 62.6154L587.438 64ZM622.75 131.875L625.75 131.883L625.937 64.0083L622.938 64L619.938 63.9917L619.75 131.867L622.75 131.875ZM622.938 64V67H634.625V64V61H622.938V64ZM634.625 64H631.625V155H634.625H637.625V64H634.625ZM713.375 143.062L715.661 145.005L716.381 144.158L716.375 143.046L713.375 143.062ZM708.875 147.625L710.807 149.92L710.825 149.905L710.842 149.89L708.875 147.625ZM703.938 151.125L702.422 148.536L702.408 148.544L702.394 148.553L703.938 151.125ZM694.5 155L693.781 152.087L693.764 152.092L693.747 152.096L694.5 155ZM683.875 156.25L683.909 153.25H683.908L683.875 156.25ZM673.5 154.562L672.484 157.385L672.506 157.393L672.529 157.401L673.5 154.562ZM665.062 149.938L666.912 147.576L666.9 147.566L666.888 147.557L665.062 149.938ZM653.812 134.562L656.593 133.435L656.583 133.413L656.574 133.39L653.812 134.562ZM650.875 125L647.925 125.546L647.929 125.567L647.933 125.588L650.875 125ZM649.875 114.812H646.875V114.831L646.875 114.849L649.875 114.812ZM649.875 104.25L646.875 104.213L646.875 104.231V104.25H649.875ZM650.75 94.1875L647.794 93.6766L647.791 93.6914L647.789 93.7063L650.75 94.1875ZM657.75 75.9375L660.246 77.6016L660.252 77.5926L660.258 77.5835L657.75 75.9375ZM664.062 69L662.198 66.6495L662.193 66.6535L664.062 69ZM694.438 64.75L693.391 67.5617L693.406 67.567L693.42 67.5722L694.438 64.75ZM703.812 70.3125L705.846 68.1068L705.837 68.0981L705.827 68.0895L703.812 70.3125ZM710.25 79.1875L707.535 80.4633L707.541 80.476L710.25 79.1875ZM713.25 90.6875V93.6875H716.526L716.238 90.4238L713.25 90.6875ZM701.812 90.6875L698.857 91.2035L699.291 93.6875H701.812V90.6875ZM699.688 83.4375L696.927 84.6131L696.931 84.6224L696.935 84.6318L699.688 83.4375ZM695.938 77.6875L698.087 75.5947L698.073 75.5803L698.059 75.5662L695.938 77.6875ZM690.312 74L689.144 76.7629L689.166 76.7725L689.189 76.7817L690.312 74ZM675.438 74.0625L676.626 76.8171L676.648 76.8074L676.671 76.7973L675.438 74.0625ZM665.938 83.375L668.621 84.7166L668.626 84.7061L668.631 84.6955L665.938 83.375ZM663.375 90L660.49 89.1758L663.375 90ZM661.5 114.812H658.5V114.84L658.5 114.867L661.5 114.812ZM662.062 121.938L659.09 122.341L659.094 122.369L659.098 122.398L662.062 121.938ZM670.875 141.188L672.969 139.039L672.955 139.026L672.941 139.013L670.875 141.188ZM676.562 145L675.349 147.744L675.371 147.753L675.394 147.763L676.562 145ZM683.938 146.438L684.016 143.439L684 143.438L683.983 143.438L683.938 146.438ZM688.875 146.25L688.591 143.264L688.584 143.264L688.875 146.25ZM698.5 143.25L700.021 145.836L700.049 145.819L700.076 145.802L698.5 143.25ZM702.062 139.875L704.524 141.59L705.057 140.826L705.062 139.893L702.062 139.875ZM702.188 119.438L705.187 119.456L705.206 116.438H702.188V119.438ZM683.688 119.438H680.688V122.438H683.688V119.438ZM683.688 109.688V106.688H680.688V109.688H683.688ZM713.188 109.688L716.187 109.671L716.171 106.688H713.188V109.688ZM713.375 143.062L711.089 141.12C709.766 142.676 708.372 144.088 706.908 145.36L708.875 147.625L710.842 149.89C712.544 148.412 714.15 146.782 715.661 145.005L713.375 143.062ZM708.875 147.625L706.943 145.33C705.484 146.559 703.977 147.626 702.422 148.536L703.938 151.125L705.453 153.714C707.315 152.624 709.1 151.358 710.807 149.92L708.875 147.625ZM703.938 151.125L702.394 148.553C699.739 150.145 696.872 151.324 693.781 152.087L694.5 155L695.219 157.913C698.878 157.009 702.302 155.605 705.481 153.697L703.938 151.125ZM694.5 155L693.747 152.096C690.645 152.9 687.369 153.289 683.909 153.25L683.875 156.25L683.841 159.25C687.798 159.294 691.605 158.85 695.253 157.904L694.5 155ZM683.875 156.25L683.908 153.25C680.439 153.212 677.302 152.692 674.471 151.724L673.5 154.562L672.529 157.401C676.032 158.599 679.811 159.205 683.842 159.25L683.875 156.25ZM673.5 154.562L674.516 151.74C671.678 150.718 669.15 149.328 666.912 147.576L665.062 149.938L663.213 152.299C665.975 154.464 669.072 156.157 672.484 157.385L673.5 154.562ZM665.062 149.938L666.888 147.557C664.629 145.825 662.648 143.77 660.941 141.381L658.5 143.125L656.059 144.869C658.102 147.73 660.496 150.217 663.237 152.318L665.062 149.938ZM658.5 143.125L660.941 141.381C659.207 138.954 657.757 136.307 656.593 133.435L653.812 134.562L651.032 135.69C652.368 138.984 654.043 142.046 656.059 144.869L658.5 143.125ZM653.812 134.562L656.574 133.39C655.364 130.542 654.444 127.55 653.817 124.412L650.875 125L647.933 125.588C648.639 129.116 649.677 132.5 651.051 135.735L653.812 134.562ZM650.875 125L653.825 124.454C653.231 121.246 652.914 118.021 652.875 114.776L649.875 114.812L646.875 114.849C646.919 118.438 647.269 122.004 647.925 125.546L650.875 125ZM649.875 114.812H652.875V104.25H649.875H646.875V114.812H649.875ZM649.875 104.25L652.875 104.287C652.915 101.061 653.193 97.8552 653.711 94.6687L650.75 94.1875L647.789 93.7063C647.223 97.1865 646.919 100.689 646.875 104.213L649.875 104.25ZM650.75 94.1875L653.706 94.6984C654.258 91.5041 655.084 88.4598 656.181 85.5617L653.375 84.5L650.569 83.4383C649.332 86.7068 648.408 90.1209 647.794 93.6766L650.75 94.1875ZM653.375 84.5L656.181 85.5617C657.271 82.6807 658.627 80.0299 660.246 77.6016L657.75 75.9375L655.254 74.2734C653.373 77.0951 651.812 80.1526 650.569 83.4383L653.375 84.5ZM657.75 75.9375L660.258 77.5835C661.836 75.1787 663.726 73.1037 665.932 71.3465L664.062 69L662.193 66.6535C659.482 68.813 657.164 71.363 655.242 74.2915L657.75 75.9375ZM664.062 69L665.927 71.3505C668.076 69.646 670.54 68.2777 673.341 67.2558L672.312 64.4375L671.284 61.6192C667.918 62.8473 664.882 64.5207 662.198 66.6495L664.062 69ZM672.312 64.4375L673.341 67.2558C676.044 66.2693 679.147 65.75 682.688 65.75V62.75V59.75C678.561 59.75 674.747 60.3557 671.284 61.6192L672.312 64.4375ZM682.688 62.75V65.75C686.62 65.75 690.178 66.366 693.391 67.5617L694.438 64.75L695.484 61.9383C691.53 60.4673 687.255 59.75 682.688 59.75V62.75ZM694.438 64.75L693.42 67.5722C696.657 68.739 699.438 70.3969 701.798 72.5355L703.812 70.3125L705.827 68.0895C702.854 65.3948 699.385 63.3443 695.455 61.9278L694.438 64.75ZM703.812 70.3125L701.779 72.5182C704.145 74.6997 706.066 77.337 707.535 80.4633L710.25 79.1875L712.965 77.9117C711.184 74.1213 708.813 70.842 705.846 68.1068L703.812 70.3125ZM710.25 79.1875L707.541 80.476C708.994 83.532 709.914 87.0117 710.262 90.9512L713.25 90.6875L716.238 90.4238C715.836 85.8633 714.756 81.6764 712.959 77.899L710.25 79.1875ZM713.25 90.6875V87.6875H701.812V90.6875V93.6875H713.25V90.6875ZM701.812 90.6875L704.768 90.1715C704.273 87.3377 703.502 84.6906 702.44 82.2432L699.688 83.4375L696.935 84.6318C697.79 86.6011 698.435 88.7873 698.857 91.2035L701.812 90.6875ZM699.688 83.4375L702.448 82.2619C701.36 79.7074 699.913 77.4703 698.087 75.5947L695.938 77.6875L693.788 79.7803C695.045 81.0714 696.099 82.6676 696.927 84.6131L699.688 83.4375ZM695.938 77.6875L698.059 75.5662C696.178 73.6855 693.96 72.2375 691.436 71.2183L690.312 74L689.189 76.7817C690.999 77.5125 692.53 78.5228 693.816 79.8088L695.938 77.6875ZM690.312 74L691.481 71.2371C688.873 70.1333 685.94 69.625 682.75 69.625V72.625V75.625C685.31 75.625 687.419 76.0333 689.144 76.7629L690.312 74ZM682.75 72.625V69.625C679.65 69.625 676.78 70.166 674.204 71.3277L675.438 74.0625L676.671 76.7973C678.345 76.0423 680.35 75.625 682.75 75.625V72.625ZM675.438 74.0625L674.249 71.3079C671.788 72.3696 669.614 73.8306 667.754 75.6912L669.875 77.8125L671.996 79.9338C673.302 78.6277 674.837 77.5887 676.626 76.8171L675.438 74.0625ZM669.875 77.8125L667.754 75.6912C665.924 77.5211 664.423 79.6499 663.244 82.0545L665.938 83.375L668.631 84.6955C669.536 82.8501 670.66 81.2705 671.996 79.9338L669.875 77.8125ZM665.938 83.375L663.254 82.0334C662.126 84.2894 661.206 86.6716 660.49 89.1758L663.375 90L666.26 90.8242C666.877 88.6617 667.665 86.6273 668.621 84.7166L665.938 83.375ZM663.375 90L660.49 89.1758C659.78 91.6618 659.27 94.1922 658.959 96.7655L661.938 97.125L664.916 97.4845C665.189 95.2244 665.637 93.0048 666.26 90.8242L663.375 90ZM661.938 97.125L658.959 96.7655C658.654 99.2919 658.5 101.746 658.5 104.125H661.5H664.5C664.5 102.004 664.637 99.7914 664.916 97.4845L661.938 97.125ZM661.5 104.125H658.5V114.812H661.5H664.5V104.125H661.5ZM661.5 114.812L658.5 114.867C658.544 117.284 658.742 119.776 659.09 122.341L662.062 121.938L665.035 121.534C664.716 119.182 664.539 116.924 664.5 114.758L661.5 114.812ZM662.062 121.938L659.098 122.398C659.497 124.97 660.096 127.498 660.894 129.981L663.75 129.062L666.606 128.144C665.904 125.96 665.378 123.739 665.027 121.477L662.062 121.938ZM663.75 129.062L660.894 129.981C661.703 132.499 662.741 134.891 664.007 137.153L666.625 135.688L669.243 134.222C668.176 132.317 667.297 130.293 666.606 128.144L663.75 129.062ZM666.625 135.688L664.007 137.153C665.316 139.489 666.915 141.564 668.809 143.362L670.875 141.188L672.941 139.013C671.501 137.644 670.268 136.053 669.243 134.222L666.625 135.688ZM670.875 141.188L668.781 143.336C670.673 145.18 672.871 146.647 675.349 147.744L676.562 145L677.776 142.256C675.921 141.436 674.327 140.362 672.969 139.039L670.875 141.188ZM676.562 145L675.394 147.763C677.971 148.853 680.82 149.391 683.892 149.437L683.938 146.438L683.983 143.438C681.555 143.401 679.488 142.98 677.731 142.237L676.562 145ZM683.938 146.438L683.859 149.436C685.575 149.482 687.345 149.414 689.166 149.236L688.875 146.25L688.584 143.264C686.988 143.42 685.466 143.477 684.016 143.439L683.938 146.438ZM688.875 146.25L689.159 149.236C691.105 149.051 692.994 148.679 694.82 148.117L693.938 145.25L693.055 142.383C691.631 142.821 690.145 143.116 688.591 143.264L688.875 146.25ZM693.938 145.25L694.82 148.117C696.66 147.551 698.396 146.792 700.021 145.836L698.5 143.25L696.979 140.664C695.77 141.375 694.465 141.949 693.055 142.383L693.938 145.25ZM698.5 143.25L700.076 145.802C701.845 144.71 703.332 143.3 704.524 141.59L702.062 139.875L699.601 138.16C698.876 139.2 697.989 140.04 696.924 140.698L698.5 143.25ZM702.062 139.875L705.062 139.893L705.187 119.456L702.188 119.438L699.188 119.419L699.063 139.857L702.062 139.875ZM702.188 119.438V116.438H683.688V119.438V122.438H702.188V119.438ZM683.688 119.438H686.688V109.688H683.688H680.688V119.438H683.688ZM683.688 109.688V112.688H713.188V109.688V106.688H683.688V109.688ZM713.188 109.688L710.188 109.704L710.375 143.079L713.375 143.062L716.375 143.046L716.187 109.671L713.188 109.688ZM761.5 117.875L764.203 116.574L763.385 114.875H761.5V117.875ZM743.312 117.875V114.875H740.312V117.875H743.312ZM743.312 155V158H746.312V155H743.312ZM731.812 155H728.812V158H731.812V155ZM731.812 64V61H728.812V64H731.812ZM758.5 64L758.559 61.0006L758.529 61H758.5V64ZM780.375 70.875L782.258 68.5392L782.249 68.5324L782.241 68.5257L780.375 70.875ZM786.938 79.375L784.216 80.6364L784.225 80.6565L784.234 80.6764L786.938 79.375ZM788.062 99.4375L785.236 98.4315L785.229 98.4529L785.221 98.4744L788.062 99.4375ZM772.312 115.375L771.12 112.622L768.22 113.879L769.626 116.71L772.312 115.375ZM791.625 154.25L794.615 154.499L794.684 153.665L794.312 152.915L791.625 154.25ZM791.562 155V158H794.323L794.552 155.249L791.562 155ZM779.375 155L776.672 156.301L777.49 158H779.375V155ZM743.312 108.375H740.312V111.375H743.312V108.375ZM758.812 108.375V111.375H758.837L758.861 111.375L758.812 108.375ZM766.125 107.188L767.058 110.039L767.081 110.031L767.105 110.023L766.125 107.188ZM772.188 103.812L774.108 106.117L774.122 106.106L774.135 106.094L772.188 103.812ZM776.25 98.5L778.955 99.7982L778.96 99.7878L778.964 99.7774L776.25 98.5ZM776.312 83.5625L773.56 84.7568L773.565 84.7664L773.569 84.776L776.312 83.5625ZM772.312 78L774.292 75.7457L774.276 75.7319L774.26 75.7183L772.312 78ZM766.188 74.6875L765.269 77.5436L765.277 77.5459L765.284 77.5482L766.188 74.6875ZM758.5 73.5L758.545 70.5003L758.522 70.5H758.5V73.5ZM743.312 73.5V70.5H740.312V73.5H743.312ZM761.5 117.875V114.875H743.312V117.875V120.875H761.5V117.875ZM743.312 117.875H740.312V155H743.312H746.312V117.875H743.312ZM743.312 155V152H731.812V155V158H743.312V155ZM731.812 155H734.812V64H731.812H728.812V155H731.812ZM731.812 64V67H758.5V64V61H731.812V64ZM758.5 64L758.441 66.9994C762.442 67.0779 766.17 67.6456 769.638 68.686L770.5 65.8125L771.362 62.939C767.33 61.7294 763.058 61.0888 758.559 61.0006L758.5 64ZM770.5 65.8125L769.638 68.686C773.053 69.7106 775.998 71.23 778.509 73.2243L780.375 70.875L782.241 68.5257C779.085 66.02 775.447 64.1644 771.362 62.939L770.5 65.8125ZM780.375 70.875L778.492 73.2108C780.907 75.1573 782.816 77.616 784.216 80.6364L786.938 79.375L789.659 78.1136C787.892 74.3007 785.426 71.0927 782.258 68.5392L780.375 70.875ZM786.938 79.375L784.234 80.6764C785.625 83.5649 786.375 87.0809 786.375 91.3125H789.375H792.375C792.375 86.3774 791.5 81.9351 789.641 78.0736L786.938 79.375ZM789.375 91.3125H786.375C786.375 93.9733 785.982 96.3362 785.236 98.4315L788.062 99.4375L790.889 100.443C791.893 97.6221 792.375 94.5683 792.375 91.3125H789.375ZM788.062 99.4375L785.221 98.4744C784.486 100.644 783.465 102.589 782.163 104.325L784.562 106.125L786.962 107.925C788.66 105.661 789.972 103.148 790.904 100.401L788.062 99.4375ZM784.562 106.125L782.163 104.325C780.843 106.084 779.261 107.651 777.403 109.026L779.188 111.438L780.972 113.849C783.28 112.141 785.282 110.166 786.962 107.925L784.562 106.125ZM779.188 111.438L777.403 109.026C775.512 110.425 773.421 111.625 771.12 112.622L772.312 115.375L773.505 118.128C776.204 116.958 778.696 115.533 780.972 113.849L779.188 111.438ZM772.312 115.375L769.626 116.71L788.938 155.585L791.625 154.25L794.312 152.915L774.999 114.04L772.312 115.375ZM791.625 154.25L788.635 154.001L788.573 154.751L791.562 155L794.552 155.249L794.615 154.499L791.625 154.25ZM791.562 155V152H779.375V155V158H791.562V155ZM779.375 155L782.078 153.699L764.203 116.574L761.5 117.875L758.797 119.176L776.672 156.301L779.375 155ZM743.312 108.375V111.375H758.812V108.375V105.375H743.312V108.375ZM758.812 108.375L758.861 111.375C761.723 111.328 764.461 110.889 767.058 110.039L766.125 107.188L765.192 104.336C763.206 104.986 761.068 105.338 758.764 105.375L758.812 108.375ZM766.125 107.188L767.105 110.023C769.717 109.121 772.062 107.823 774.108 106.117L772.188 103.812L770.267 101.508C768.813 102.719 767.116 103.671 765.145 104.352L766.125 107.188ZM772.188 103.812L774.135 106.094C776.171 104.356 777.779 102.247 778.955 99.7982L776.25 98.5L773.545 97.2018C772.721 98.9193 771.621 100.352 770.24 101.531L772.188 103.812ZM776.25 98.5L778.964 99.7774C780.182 97.1901 780.75 94.3042 780.75 91.1875H777.75H774.75C774.75 93.5708 774.318 95.5599 773.536 97.2226L776.25 98.5ZM777.75 91.1875H780.75C780.75 87.947 780.218 84.9754 779.056 82.349L776.312 83.5625L773.569 84.776C774.324 86.4829 774.75 88.5947 774.75 91.1875H777.75ZM776.312 83.5625L779.065 82.3682C777.941 79.7783 776.352 77.5548 774.292 75.7457L772.312 78L770.333 80.2543C771.689 81.4452 772.768 82.93 773.56 84.7568L776.312 83.5625ZM772.312 78L774.26 75.7183C772.214 73.9719 769.807 72.6846 767.091 71.8268L766.188 74.6875L765.284 77.5482C767.318 78.1904 768.994 79.1115 770.365 80.2817L772.312 78ZM766.188 74.6875L767.106 71.8314C764.454 70.979 761.593 70.5458 758.545 70.5003L758.5 73.5L758.455 76.4997C760.991 76.5375 763.255 76.896 765.269 77.5436L766.188 74.6875ZM758.5 73.5V70.5H743.312V73.5V76.5H758.5V73.5ZM743.312 73.5H740.312V108.375H743.312H746.312V73.5H743.312ZM867.438 114.75L870.437 114.788L870.438 114.769V114.75H867.438ZM866.562 124.625L863.601 124.144L863.599 124.159L863.597 124.174L866.562 124.625ZM860 142.812L857.474 141.194L857.465 141.208L857.456 141.223L860 142.812ZM845.938 154.562L846.991 157.371L847.001 157.368L847.012 157.364L845.938 154.562ZM825.625 154.562L824.538 157.359L824.561 157.368L824.584 157.376L825.625 154.562ZM811.562 142.812L809.025 144.413L809.031 144.422L809.036 144.431L811.562 142.812ZM807.375 134.125L810.205 133.131L810.199 133.114L810.193 133.097L807.375 134.125ZM804 114.75H801V114.769L801 114.788L804 114.75ZM804 104.375L801 104.337L801 104.356V104.375H804ZM804.812 94.5625L801.851 94.0813L801.849 94.0966L801.847 94.112L804.812 94.5625ZM807.312 84.9375L810.131 85.9658L810.137 85.9489L810.143 85.932L807.312 84.9375ZM811.438 76.3125L808.9 74.712L808.893 74.7225L811.438 76.3125ZM817.5 69.1875L815.548 66.9097L815.536 66.9197L815.524 66.9298L817.5 69.1875ZM825.5 64.5L826.553 67.309L826.564 67.305L826.574 67.301L825.5 64.5ZM845.875 64.5L844.801 67.301L844.817 67.3075L844.834 67.3137L845.875 64.5ZM859.938 76.25L857.383 77.8223L857.397 77.8454L857.411 77.8683L859.938 76.25ZM864.188 84.875L867.018 83.8805L867.012 83.8636L867.006 83.8467L864.188 84.875ZM866.562 94.5L863.596 94.945L863.598 94.9631L863.601 94.9812L866.562 94.5ZM867.438 104.375H870.438V104.356L870.437 104.337L867.438 104.375ZM856 104.25H859V104.221L858.999 104.192L856 104.25ZM855.562 97.5L852.579 97.8141L852.58 97.8196L855.562 97.5ZM854.312 90.4375L857.223 89.7099L857.215 89.6789L857.207 89.6481L854.312 90.4375ZM851.875 83.875L849.161 85.1524L849.165 85.1628L849.17 85.1732L851.875 83.875ZM848.125 78.25L850.329 76.2152L850.316 76.2009L850.303 76.1868L848.125 78.25ZM842.812 74.5L841.538 77.2157L841.561 77.2265L841.584 77.2368L842.812 74.5ZM823.312 78.3125L821.135 76.2493L821.121 76.2634L821.108 76.2777L823.312 78.3125ZM819.562 83.9375L822.267 85.2357L822.272 85.2253L822.277 85.2149L819.562 83.9375ZM817.188 90.5L820.085 91.2762L820.09 91.2581L820.095 91.24L817.188 90.5ZM815.812 97.5625L812.835 97.1968L812.832 97.2198L812.83 97.2429L815.812 97.5625ZM815.375 104.25L812.376 104.191L812.375 104.221V104.25H815.375ZM815.375 114.75H812.375V114.779L812.376 114.809L815.375 114.75ZM815.812 121.5L812.829 121.814L812.832 121.84L812.835 121.866L815.812 121.5ZM817.188 128.5L820.085 127.724L820.082 127.711L817.188 128.5ZM823.375 140.75L825.579 138.715L825.566 138.701L825.553 138.687L823.375 140.75ZM828.688 144.625L829.962 141.909L828.688 144.625ZM842.938 144.625L841.684 141.9L841.673 141.904L841.663 141.909L842.938 144.625ZM848.312 140.75L850.517 142.785L850.519 142.782L848.312 140.75ZM851.938 135.25L849.223 133.973L849.217 133.984L849.212 133.996L851.938 135.25ZM854.375 128.562L857.273 129.339L857.278 129.321L857.282 129.303L854.375 128.562ZM855.562 121.562L852.579 121.248L852.576 121.274L852.574 121.3L855.562 121.562ZM856 114.75L858.999 114.808L859 114.779V114.75H856ZM867.438 114.75L864.438 114.712C864.398 117.808 864.12 120.951 863.601 124.144L866.562 124.625L869.524 125.106C870.088 121.632 870.394 118.192 870.437 114.788L867.438 114.75ZM866.562 124.625L863.597 124.174C863.124 127.284 862.377 130.29 861.357 133.193L864.188 134.188L867.018 135.182C868.164 131.919 869.001 128.549 869.528 125.076L866.562 124.625ZM864.188 134.188L861.357 133.193C860.348 136.064 859.053 138.729 857.474 141.194L860 142.812L862.526 144.431C864.364 141.562 865.86 138.477 867.018 135.182L864.188 134.188ZM860 142.812L857.456 141.223C855.947 143.637 854.145 145.737 852.048 147.535L854 149.812L855.952 152.09C858.522 149.888 860.72 147.321 862.544 144.402L860 142.812ZM854 149.812L852.048 147.535C849.99 149.298 847.604 150.71 844.863 151.761L845.938 154.562L847.012 157.364C850.355 156.081 853.343 154.327 855.952 152.09L854 149.812ZM845.938 154.562L844.884 151.754C842.273 152.733 839.263 153.25 835.812 153.25V156.25V159.25C839.862 159.25 843.602 158.642 846.991 157.371L845.938 154.562ZM835.812 156.25V153.25C832.363 153.25 829.327 152.733 826.666 151.749L825.625 154.562L824.584 157.376C828.007 158.642 831.762 159.25 835.812 159.25V156.25ZM825.625 154.562L826.712 151.766C824.013 150.717 821.642 149.304 819.577 147.535L817.625 149.812L815.673 152.09C818.275 154.321 821.237 156.075 824.538 157.359L825.625 154.562ZM817.625 149.812L819.577 147.535C817.473 145.731 815.644 143.622 814.089 141.194L811.562 142.812L809.036 144.431C810.898 147.337 813.11 149.894 815.673 152.09L817.625 149.812ZM811.562 142.812L814.1 141.212C812.514 138.698 811.216 136.006 810.205 133.131L807.375 134.125L804.545 135.119C805.701 138.411 807.194 141.51 809.025 144.413L811.562 142.812ZM807.375 134.125L810.193 133.097C809.133 130.192 808.347 127.186 807.835 124.075L804.875 124.562L801.915 125.05C802.486 128.523 803.367 131.892 804.557 135.153L807.375 134.125ZM804.875 124.562L807.835 124.075C807.317 120.928 807.039 117.807 807 114.712L804 114.75L801 114.788C801.044 118.193 801.349 121.614 801.915 125.05L804.875 124.562ZM804 114.75H807V104.375H804H801V114.75H804ZM804 104.375L807 104.413C807.04 101.305 807.299 98.1716 807.778 95.013L804.812 94.5625L801.847 94.112C801.326 97.5367 801.044 100.945 801 104.337L804 104.375ZM804.812 94.5625L807.774 95.0437C808.286 91.8914 809.072 88.8666 810.131 85.9658L807.312 84.9375L804.494 83.9092C803.303 87.1751 802.422 90.5669 801.851 94.0813L804.812 94.5625ZM807.312 84.9375L810.143 85.932C811.156 83.0489 812.436 80.3746 813.982 77.9025L811.438 76.3125L808.893 74.7225C807.105 77.5837 805.636 80.6594 804.482 83.943L807.312 84.9375ZM811.438 76.3125L813.975 77.913C815.534 75.4416 817.367 73.2899 819.476 71.4452L817.5 69.1875L815.524 66.9298C812.966 69.1684 810.758 71.7667 808.9 74.712L811.438 76.3125ZM817.5 69.1875L819.452 71.4653C821.508 69.7032 823.868 68.3161 826.553 67.309L825.5 64.5L824.447 61.691C821.132 62.9339 818.159 64.6718 815.548 66.9097L817.5 69.1875ZM825.5 64.5L826.574 67.301C829.225 66.2842 832.25 65.75 835.688 65.75V62.75V59.75C831.625 59.75 827.858 60.3825 824.426 61.699L825.5 64.5ZM835.688 62.75V65.75C839.125 65.75 842.15 66.2842 844.801 67.301L845.875 64.5L846.949 61.699C843.517 60.3825 839.75 59.75 835.688 59.75V62.75ZM845.875 64.5L844.834 67.3137C847.561 68.3223 849.936 69.7091 851.985 71.4653L853.938 69.1875L855.89 66.9097C853.272 64.6659 850.272 62.9277 846.916 61.6863L845.875 64.5ZM853.938 69.1875L851.985 71.4653C854.074 73.2558 855.873 75.3696 857.383 77.8223L859.938 76.25L862.492 74.6777C860.668 71.7137 858.468 69.1192 855.89 66.9097L853.938 69.1875ZM859.938 76.25L857.411 77.8683C858.997 80.343 860.317 83.0192 861.369 85.9033L864.188 84.875L867.006 83.8467C865.808 80.5641 864.295 77.4904 862.464 74.6317L859.938 76.25ZM864.188 84.875L861.357 85.8695C862.376 88.7689 863.123 91.7929 863.596 94.945L866.562 94.5L869.529 94.055C869.002 90.5405 868.166 87.1478 867.018 83.8805L864.188 84.875ZM866.562 94.5L863.601 94.9812C864.12 98.1738 864.398 101.317 864.438 104.413L867.438 104.375L870.437 104.337C870.394 100.933 870.088 97.4929 869.524 94.0188L866.562 94.5ZM867.438 104.375H864.438V114.75H867.438H870.438V104.375H867.438ZM856 104.25L858.999 104.192C858.956 101.931 858.804 99.5937 858.545 97.1804L855.562 97.5L852.58 97.8196C852.821 100.073 852.961 102.235 853.001 104.308L856 104.25ZM855.562 97.5L858.546 97.1859C858.281 94.6706 857.84 92.1782 857.223 89.7099L854.312 90.4375L851.402 91.1651C851.952 93.3634 852.344 95.5794 852.579 97.8141L855.562 97.5ZM854.312 90.4375L857.207 89.6481C856.535 87.1864 855.66 84.8282 854.58 82.5768L851.875 83.875L849.17 85.1732C850.09 87.0885 850.84 89.1053 851.418 91.2269L854.312 90.4375ZM851.875 83.875L854.589 82.5976C853.467 80.2128 852.05 78.0787 850.329 76.2152L848.125 78.25L845.921 80.2848C847.2 81.6713 848.283 83.2872 849.161 85.1524L851.875 83.875ZM848.125 78.25L850.303 76.1868C848.526 74.3116 846.431 72.836 844.041 71.7632L842.812 74.5L841.584 77.2368C843.278 77.9973 844.724 79.0217 845.947 80.3132L848.125 78.25ZM842.812 74.5L844.087 71.7843C841.575 70.6049 838.749 70.0625 835.688 70.0625V73.0625V76.0625C838.042 76.0625 839.967 76.4784 841.538 77.2157L842.812 74.5ZM835.688 73.0625V70.0625C832.66 70.0625 829.857 70.6076 827.35 71.7843L828.625 74.5L829.9 77.2157C831.476 76.4757 833.382 76.0625 835.688 76.0625V73.0625ZM828.625 74.5L827.35 71.7843C824.981 72.8963 822.901 74.3847 821.135 76.2493L823.312 78.3125L825.49 80.3757C826.724 79.0737 828.185 78.0204 829.9 77.2157L828.625 74.5ZM823.312 78.3125L821.108 76.2777C819.388 78.1412 817.97 80.2753 816.848 82.6601L819.562 83.9375L822.277 85.2149C823.155 83.3497 824.237 81.7338 825.517 80.3473L823.312 78.3125ZM819.562 83.9375L816.858 82.6393C815.77 84.9057 814.911 87.2805 814.28 89.76L817.188 90.5L820.095 91.24C820.63 89.1362 821.355 87.136 822.267 85.2357L819.562 83.9375ZM817.188 90.5L814.29 89.7238C813.629 92.1907 813.144 94.682 812.835 97.1968L815.812 97.5625L818.79 97.9282C819.065 95.693 819.496 93.476 820.085 91.2762L817.188 90.5ZM815.812 97.5625L812.83 97.2429C812.571 99.6541 812.419 101.971 812.376 104.191L815.375 104.25L818.374 104.309C818.414 102.279 818.554 100.138 818.795 97.8821L815.812 97.5625ZM815.375 104.25H812.375V114.75H815.375H818.375V104.25H815.375ZM815.375 114.75L812.376 114.809C812.419 117.029 812.571 119.364 812.829 121.814L815.812 121.5L818.796 121.186C818.554 118.886 818.414 116.721 818.374 114.691L815.375 114.75ZM815.812 121.5L812.835 121.866C813.144 124.383 813.63 126.858 814.293 129.289L817.188 128.5L820.082 127.711C819.495 125.559 819.064 123.367 818.79 121.134L815.812 121.5ZM817.188 128.5L814.29 129.276C814.959 131.777 815.833 134.174 816.911 136.465L819.625 135.188L822.339 133.91C821.417 131.951 820.666 129.89 820.085 127.724L817.188 128.5ZM819.625 135.188L816.911 136.465C818.036 138.857 819.461 140.981 821.197 142.813L823.375 140.75L825.553 138.687C824.289 137.352 823.214 135.768 822.339 133.91L819.625 135.188ZM823.375 140.75L821.171 142.785C822.939 144.7 825.027 146.221 827.413 147.341L828.688 144.625L829.962 141.909C828.264 141.112 826.811 140.05 825.579 138.715L823.375 140.75ZM828.688 144.625L827.413 147.341C829.925 148.52 832.751 149.062 835.812 149.062V146.062V143.062C833.458 143.062 831.533 142.647 829.962 141.909L828.688 144.625ZM835.812 146.062V149.062C838.874 149.062 841.7 148.52 844.212 147.341L842.938 144.625L841.663 141.909C840.092 142.647 838.167 143.062 835.812 143.062V146.062ZM842.938 144.625L844.191 147.35C846.62 146.233 848.739 144.711 850.517 142.785L848.312 140.75L846.108 138.715C844.886 140.039 843.421 141.1 841.684 141.9L842.938 144.625ZM848.312 140.75L850.519 142.782C852.204 140.954 853.582 138.854 854.663 136.504L851.938 135.25L849.212 133.996C848.376 135.813 847.338 137.38 846.106 138.718L848.312 140.75ZM851.938 135.25L854.652 136.527C855.73 134.237 856.603 131.839 857.273 129.339L854.375 128.562L851.477 127.786C850.897 129.952 850.145 132.013 849.223 133.973L851.938 135.25ZM854.375 128.562L857.282 129.303C857.906 126.853 858.329 124.36 858.551 121.825L855.562 121.562L852.574 121.3C852.38 123.515 852.011 125.689 851.468 127.822L854.375 128.562ZM855.562 121.562L858.546 121.877C858.804 119.425 858.956 117.068 858.999 114.808L856 114.75L853.001 114.692C852.961 116.765 852.821 118.95 852.579 121.248L855.562 121.562ZM856 114.75H859V104.25H856H853V114.75H856ZM907.438 155L904.577 155.904L905.239 158H907.438V155ZM878.688 64V61H874.594L875.827 64.9038L878.688 64ZM891.062 64L893.94 63.1528L893.307 61H891.062V64ZM911.062 131.938L908.185 132.785L908.186 132.788L911.062 131.938ZM912.375 136.375L909.498 137.226L912.348 146.861L915.247 137.241L912.375 136.375ZM913.75 131.812L916.622 132.678L916.626 132.666L913.75 131.812ZM933.875 64V61H931.636L930.999 63.1465L933.875 64ZM946.188 64L949.049 64.902L950.279 61H946.188V64ZM917.5 155V158H919.7L920.361 155.902L917.5 155ZM907.438 155L910.298 154.096L881.548 63.0962L878.688 64L875.827 64.9038L904.577 155.904L907.438 155ZM878.688 64V67H891.062V64V61H878.688V64ZM891.062 64L888.185 64.8472L908.185 132.785L911.062 131.938L913.94 131.09L893.94 63.1528L891.062 64ZM911.062 131.938L908.186 132.788L909.498 137.226L912.375 136.375L915.252 135.524L913.939 131.087L911.062 131.938ZM912.375 136.375L915.247 137.241L916.622 132.678L913.75 131.812L910.878 130.947L909.503 135.509L912.375 136.375ZM913.75 131.812L916.626 132.666L936.751 64.8535L933.875 64L930.999 63.1465L910.874 130.959L913.75 131.812ZM933.875 64V67H946.188V64V61H933.875V64ZM946.188 64L943.326 63.098L914.639 154.098L917.5 155L920.361 155.902L949.049 64.902L946.188 64ZM917.5 155V152H907.438V155V158H917.5V155ZM1012.06 112.938V115.938H1015.06V112.938H1012.06ZM974.062 112.938V109.938H971.062V112.938H974.062ZM974.062 145.188H971.062V148.188H974.062V145.188ZM1018.38 145.188H1021.38V142.188H1018.38V145.188ZM1018.38 155V158H1021.38V155H1018.38ZM962.5 155H959.5V158H962.5V155ZM962.5 64V61H959.5V64H962.5ZM1017.81 64H1020.81V61H1017.81V64ZM1017.81 73.875V76.875H1020.81V73.875H1017.81ZM974.062 73.875V70.875H971.062V73.875H974.062ZM974.062 103.125H971.062V106.125H974.062V103.125ZM1012.06 103.125H1015.06V100.125H1012.06V103.125ZM1012.06 112.938V109.938H974.062V112.938V115.938H1012.06V112.938ZM974.062 112.938H971.062V145.188H974.062H977.062V112.938H974.062ZM974.062 145.188V148.188H1018.38V145.188V142.188H974.062V145.188ZM1018.38 145.188H1015.38V155H1018.38H1021.38V145.188H1018.38ZM1018.38 155V152H962.5V155V158H1018.38V155ZM962.5 155H965.5V64H962.5H959.5V155H962.5ZM962.5 64V67H1017.81V64V61H962.5V64ZM1017.81 64H1014.81V73.875H1017.81H1020.81V64H1017.81ZM1017.81 73.875V70.875H974.062V73.875V76.875H1017.81V73.875ZM974.062 73.875H971.062V103.125H974.062H977.062V73.875H974.062ZM974.062 103.125V106.125H1012.06V103.125V100.125H974.062V103.125ZM1012.06 103.125H1009.06V112.938H1012.06H1015.06V103.125H1012.06Z" fill="#1D3557" mask="url(#path-789-outside-1_65_21)"/>
<rect x="936" y="570" width="11" height="2" fill="#1D3557"/>
<rect x="936" y="574" width="13" height="2" fill="#1D3557"/>
<rect x="941" y="578" width="13" height="2" fill="#1D3557"/>
<rect x="942" y="580" width="14" height="2" fill="#1D3557"/>
<rect x="941" y="584" width="10" height="2" fill="#1D3557"/>
<rect x="946" y="584" width="14" height="2" fill="#1D3557"/>
<rect x="943" y="589" width="9" height="2" fill="#1D3557"/>
<rect x="950" y="589" width="14" height="2" fill="#1D3557"/>
<rect x="945" y="590" width="14" height="2" fill="#1D3557"/>
<rect x="712" y="538" width="12" height="2" fill="#1D3557"/>
<rect x="733" y="542" width="12" height="2" fill="#1D3557"/>
<rect x="732" y="543" width="12" height="2" fill="#1D3557"/>
<rect x="732" y="547" width="13" height="2" fill="#1D3557"/>
<rect x="726" y="535" width="17" height="2" fill="#1D3557"/>
<rect x="721" y="532" width="15" height="2" fill="#1D3557"/>
<rect x="721" y="530" width="35" height="4" fill="#1D3557"/>
<rect x="748" y="527" width="37" height="2" fill="#1D3557"/>
<rect x="758" y="519" width="17" height="2" fill="#1D3557"/>
<rect x="752" y="526" width="31" height="2" fill="#1D3557"/>
<rect x="802" y="520" width="25" height="3" fill="#1D3557"/>
<rect x="806" y="522" width="25" height="2" fill="#1D3557"/>
<rect x="806" y="525" width="33" height="2" fill="#1D3557"/>
<rect x="826" y="524" width="30" height="4" fill="#1D3557"/>
<rect x="810" y="527" width="27" height="2" fill="#1D3557"/>
<rect x="849" y="526" width="28" height="2" fill="#1D3557"/>
<rect x="846" y="525" width="22" height="2" fill="#1D3557"/>
<rect x="847" y="528" width="31" height="1" fill="#1D3557"/>
<rect x="855" y="531" width="30" height="2" fill="#1D3557"/>
<rect x="860" y="532" width="28" height="1" fill="#1D3557"/>
<rect x="867" y="536" width="32" height="2" fill="#1D3557"/>
<rect x="871" y="538" width="33" height="2" fill="#1D3557"/>
<rect x="876" y="542" width="31" height="2" fill="#1D3557"/>
<rect x="876" y="543" width="30" height="2" fill="#1D3557"/>
<rect x="873" y="551" width="20" height="2" fill="#1D3557"/>
<rect x="873" y="554" width="20" height="2" fill="#1D3557"/>
<rect x="875" y="556" width="19" height="2" fill="#1D3557"/>
<rect x="876" y="559" width="20" height="2" fill="#1D3557"/>
<rect x="878" y="561" width="21" height="2" fill="#1D3557"/>
<rect x="882" y="565" width="20" height="2" fill="#1D3557"/>
<rect x="884" y="570" width="18" height="2" fill="#1D3557"/>
<rect x="902" y="551" width="29" height="2" fill="#1D3557"/>
<rect x="944" y="548" width="22" height="2" fill="#1D3557"/>
<rect x="942" y="550" width="27" height="2" fill="#1D3557"/>
<rect x="875" y="549" width="19" height="2" fill="#1D3557"/>
<rect x="900" y="549" width="29" height="2" fill="#1D3557"/>
<rect x="876" y="548" width="52" height="2" fill="#1D3557"/>
<rect x="849" y="525" width="25" height="1" fill="#1D3557"/>
<rect x="813" y="531" width="25" height="2" fill="#1D3557"/>
<rect x="815" y="536" width="25" height="2" fill="#1D3557"/>
<rect x="818" y="538" width="24" height="2" fill="#1D3557"/>
<rect x="753" y="520" width="26" height="2" fill="#1D3557"/>
<rect x="754" y="521" width="25" height="2" fill="#1D3557"/>
<rect x="718" y="529" width="8" height="3" fill="#1D3557"/>
<rect x="731" y="551" width="16" height="2" fill="#1D3557"/>
<rect x="733" y="554" width="16" height="2" fill="#1D3557"/>
<rect x="734" y="558" width="16" height="2" fill="#1D3557"/>
<rect x="735" y="566" width="16" height="2" fill="#1D3557"/>
<rect x="737" y="580" width="18" height="2" fill="#1D3557"/>
<rect x="741" y="590" width="16" height="2" fill="#1D3557"/>
<rect x="733" y="549" width="12" height="2" fill="#1D3557"/>
<rect x="734" y="556" width="14" height="2" fill="#1D3557"/>
<rect x="735" y="561" width="14" height="2" fill="#1D3557"/>
<rect x="735" y="564" width="14" height="2" fill="#1D3557"/>
<rect x="737" y="570" width="14" height="2" fill="#1D3557"/>
<rect x="738" y="573" width="14" height="2" fill="#1D3557"/>
<rect x="779" y="590" width="14" height="2" fill="#1D3557"/>
<rect x="765" y="554" width="15" height="3" fill="#1D3557"/>
<rect x="765" y="548" width="13" height="4" fill="#1D3557"/>
<rect x="763" y="542" width="14" height="4" fill="#1D3557"/>
<rect x="761" y="538" width="16" height="2" fill="#1D3557"/>
<rect x="763" y="536" width="16" height="2" fill="#1D3557"/>
<rect x="753" y="529" width="36" height="4" fill="#1D3557"/>
<rect x="764" y="531" width="30" height="1" fill="#1D3557"/>
<rect x="767" y="557" width="14" height="2" fill="#1D3557"/>
<rect x="767" y="561" width="14" height="2" fill="#1D3557"/>
<rect x="768" y="565" width="13" height="2" fill="#1D3557"/>
<rect x="770" y="570" width="14" height="2" fill="#1D3557"/>
<rect x="772" y="573" width="14" height="2" fill="#1D3557"/>
<rect x="775" y="578" width="14" height="2" fill="#1D3557"/>
<rect x="776" y="584" width="14" height="2" fill="#1D3557"/>
<rect x="775" y="581" width="15" height="2" fill="#1D3557"/>
<rect x="775" y="579" width="14" height="2" fill="#1D3557"/>
<rect x="779" y="588" width="14" height="2" fill="#1D3557"/>
<rect x="739" y="584" width="16" height="2" fill="#1D3557"/>
<rect x="740" y="588" width="16" height="2" fill="#1D3557"/>
<rect x="740" y="578" width="14" height="2" fill="#1D3557"/>
<rect x="711" y="536" width="13" height="2" fill="#1D3557"/>
<rect x="710" y="531" width="12" height="2" fill="#1D3557"/>
<rect x="706" y="528" width="25" height="2" fill="#1D3557"/>
</svg>
