<svg width="100" height="100" viewBox="0 0 100 100" fill="none" xmlns="http://www.w3.org/2000/svg">
<path d="M53.8341 30.7426C59.6156 1.68214 40.3914 1.68214 46.1729 30.7426C40.3914 1.68214 22.6299 9.0376 39.0919 33.6751C22.6299 9.0376 9.03771 22.6297 33.6752 39.0918C9.03771 22.6297 1.68225 40.3912 30.7427 46.1693C1.68225 40.3878 1.68225 59.612 30.7427 53.8305C1.68225 59.612 9.04118 77.3701 33.6752 60.908C9.04118 77.3701 22.6333 90.9622 39.0919 66.3247C22.6299 90.9587 40.3913 98.3142 46.1694 69.2572C40.3879 98.3177 59.6121 98.3177 53.8306 69.2572C59.6121 98.3177 77.3702 90.9587 60.9081 66.3247C77.3702 90.9587 90.9623 77.3666 66.3248 60.908C90.9588 77.3701 98.3143 59.6086 69.2573 53.8305C98.3178 59.612 98.3178 40.3878 69.2573 46.1693C98.3178 40.3878 90.9588 22.6297 66.3248 39.0918C90.9588 22.6297 77.3667 9.0376 60.9081 33.6751C77.3702 9.04108 59.6087 1.68562 53.8306 30.7426H53.8341Z" fill="#1D3557"/>
</svg>
