<svg width="100" height="100" viewBox="0 0 100 100" fill="none" xmlns="http://www.w3.org/2000/svg">
<path d="M53.834 30.7426C59.6155 1.68214 40.3912 1.68214 46.1728 30.7426C40.3912 1.68214 22.6297 9.0376 39.0918 33.6751C22.6297 9.0376 9.0376 22.6297 33.6751 39.0918C9.0376 22.6297 1.68214 40.3912 30.7426 46.1693C1.68214 40.3878 1.68214 59.612 30.7426 53.8305C1.68214 59.612 9.04108 77.3701 33.6751 60.908C9.04108 77.3701 22.6332 90.9622 39.0918 66.3247C22.6297 90.9587 40.3912 98.3142 46.1693 69.2572C40.3878 98.3177 59.612 98.3177 53.8305 69.2572C59.612 98.3177 77.3701 90.9587 60.908 66.3247C77.3701 90.9587 90.9622 77.3666 66.3247 60.908C90.9587 77.3701 98.3142 59.6086 69.2572 53.8305C98.3177 59.612 98.3177 40.3878 69.2572 46.1693C98.3177 40.3878 90.9587 22.6297 66.3247 39.0918C90.9587 22.6297 77.3666 9.0376 60.908 33.6751C77.3701 9.04108 59.6086 1.68562 53.8305 30.7426H53.834Z" fill="white"/>
</svg>
