<svg width="1440" height="358" viewBox="0 0 1440 358" fill="none" xmlns="http://www.w3.org/2000/svg">
<g clip-path="url(#clip0_216_1263)">
<rect width="1440" height="358" fill="#FF0000"/>
<rect width="1440" height="3372" fill="white"/>
<path d="M1243.5 118.404C1146.28 11.1901 1036.5 73.9033 910 152.403C825.071 205.106 686.5 270.403 580.5 123.904C473.75 -23.6326 357 79.547 289 118.404C226 154.403 -67.9999 256.903 -127 131.403L-127 2627C-68 2752.5 226 2650 289 2614C357 2575.14 473.75 2471.96 580.5 2619.5C686.5 2766 825.071 2700.7 910 2648C1036.5 2569.5 1146.28 2506.79 1243.5 2614C1350.5 2732 1472.5 2711.83 1510 2682V186.403C1472.5 216.237 1350.5 236.403 1243.5 118.404Z" fill="url(#paint0_linear_216_1263)"/>
<path d="M1133.01 81.9403C1166.75 82.9131 1201.75 101.708 1228.59 131.922C1251.68 157.326 1278.14 179.158 1304.87 194.968C1305.76 195.496 1306.65 196.018 1307.53 196.533C1333.2 211.254 1362.06 223.433 1399.11 228.78C1403.88 229.442 1408.64 229.961 1413.72 230.334C1444.34 231.428 1480.95 233.1 1524.02 204.027L1487.48 186.403C1487.29 204.071 1487.1 223.196 1486.9 244.034C1484.75 470.412 1486.18 648.901 1486.63 704.421C1487.52 815.771 1487.54 934.553 1487.57 1096.63C1487.57 1111.45 1487.57 1126.64 1487.57 1142.21C1487.57 1154.83 1486.85 1165.28 1485.95 1165.57C1485.05 1165.85 1484.32 1155.86 1484.32 1143.24C1484.32 1127.99 1484.32 1113.12 1484.31 1098.64C1484.31 1098.58 1484.31 1098.51 1484.31 1098.44C1484.29 935.349 1484.27 819.149 1483.4 710.424C1482.94 653.694 1481.48 470.821 1483.69 238.855C1483.86 220.053 1484.04 202.629 1484.2 186.403L1526.06 206.59C1478.08 238.521 1438.73 235.042 1406.04 232.943C1401.07 232.415 1396.33 231.748 1391.68 230.957C1391.57 230.938 1391.46 230.919 1391.35 230.9C1353.75 224.196 1326.34 211.524 1301.66 196.854C1301.14 196.542 1300.63 196.229 1300.11 195.913C1273.78 179.856 1248.47 158.572 1226.2 134.091C1199.35 103.898 1165.12 86.0149 1132.46 85.1655C1121.88 84.6344 1113.02 84.9431 1113.03 84.0091C1113.05 83.1363 1122.12 81.3611 1133.01 81.9403ZM-0.376411 2677.8C-40.6268 2678.08 -98.4265 2668.66 -118.958 2623.22L-118.113 2627C-118.063 2599.12 -117.928 2571.13 -117.744 2544.38C-117.211 2466.54 -116.251 2396.09 -115.662 2362.93C-115.086 2330.52 -114.9 2294.51 -114.785 2251.55C-114.759 2241.69 -114.736 2231.47 -114.713 2220.91C-114.636 2185.99 -114.549 2147.15 -114.293 2104.51C-113.35 1947.87 -113.31 1845.75 -113.395 1772.82C-113.413 1757.82 -113.437 1743.86 -113.46 1730.8C-113.46 1730.78 -113.46 1730.76 -113.46 1730.73C-113.544 1681.43 -113.605 1644.64 -113.235 1610.8C-112.577 1550.58 -111.993 1501.41 -110.853 1442.06C-109.28 1360.21 -109.467 1243.63 -110.548 1167.77C-110.608 1163.6 -110.671 1159.34 -110.732 1155.04C-111.521 1100.04 -112.492 1032.32 -113.215 930.779C-113.816 846.414 -113.769 772.887 -113.6 707.809C-113.551 689.158 -113.491 671.361 -113.435 654.276C-113.296 611.151 -113.17 572.553 -113.243 536.194C-113.641 338.456 -113.239 214.124 -112.537 131.403L-140.088 137.556C-134.402 149.899 -126.835 160.099 -118.431 168.308C-60.8649 215.215 -18.0626 205.776 7.20798 208.994C15.3368 209.138 22.25 209.031 28.9536 208.771C87.9815 205.948 140.503 194.419 201.713 175.519C215.126 171.289 229.409 166.434 243.9 161.005C264.549 153.192 282.655 145.618 299.261 136.361C320.706 123.911 336.496 113.031 350.763 104.441C361.461 97.907 370.866 92.5497 379.843 87.942C380.009 87.8566 380.174 87.7713 380.34 87.6862C381.592 87.0465 382.841 86.4207 384.073 85.8123C385.005 85.3527 385.934 84.8962 386.869 84.448C387.231 84.2613 387.558 84.0984 387.802 83.9758C387.995 83.8789 388.145 83.804 388.242 83.7559C388.26 83.7461 388.278 83.7364 388.296 83.7266C390.053 82.852 391.582 82.1519 391.895 82.0087C392.441 81.758 392.928 81.5422 393.177 81.4313C394.489 80.8447 396.188 80.1197 397.319 79.6509C400.227 78.4577 405.282 76.3519 413.171 73.8113C420.023 71.6052 426.625 69.7743 434.883 68.2873C435.403 68.1948 435.923 68.1055 436.443 68.0193C444.488 66.7162 453.936 65.784 465.507 66.8135C476.045 67.7046 485.242 71.331 486.206 72.5882C487.228 73.9258 480.18 72.0753 470.092 70.6444C459.619 69.1989 451.091 69.5332 443.264 70.3938C442.768 70.4504 442.273 70.5101 441.776 70.5731C433.602 71.6142 425.81 73.367 417.408 75.9037C414.598 76.7545 411.699 77.7129 408.991 78.674C404.13 80.4216 398.608 82.6379 392.049 85.6591C390.732 86.2666 389.373 86.9041 387.987 87.5715C379.087 91.8518 368.818 97.4222 357.241 104.354C341.622 113.548 324.348 125.514 300.873 139.182C282.024 149.642 262.16 157.743 239.216 166.232C225.206 171.35 211.722 175.856 198.186 180.053C136.475 198.729 79.8193 211.278 16.3197 212.45C7.5206 212.522 -0.723877 212.307 -9.87413 211.693C-35.1651 207.28 -73.8806 214.156 -125.72 165.422C-132.314 158.039 -138.289 149.258 -143.043 138.946L-109.272 131.403C-109.97 210.789 -110.399 333.5 -109.996 533.984C-109.919 572.148 -110.054 613.318 -110.196 657.179C-110.25 673.921 -110.302 691.084 -110.348 708.6C-110.515 772.667 -110.56 843.878 -109.98 925.337C-109.272 1024.61 -108.33 1090.48 -107.545 1145.24C-107.517 1147.13 -107.489 1149.02 -107.461 1150.91C-107.427 1153.26 -107.394 1155.59 -107.361 1157.9C-106.208 1238.75 -105.98 1362.79 -107.717 1453.21C-108.807 1509.95 -109.369 1557.02 -110.024 1616.91C-110.346 1646.36 -110.293 1677.83 -110.212 1726.15C-110.189 1739.71 -110.167 1754.62 -110.148 1771.17C-110.061 1845.41 -110.1 1949.08 -111.053 2107.47C-111.301 2148.77 -111.384 2185.93 -111.461 2220.64C-111.485 2231.42 -111.51 2242.01 -111.537 2252.37C-111.653 2295.55 -111.841 2335.73 -112.507 2373.19C-113.054 2403.98 -113.99 2472.16 -114.509 2547.87C-114.688 2574.07 -114.815 2600.82 -114.863 2627L-116.016 2621.84C-97.5065 2662.86 -47.0305 2673.06 -11.9343 2674.22C-6.22932 2674.44 -0.320358 2674.49 5.44807 2674.38C55.8266 2673.31 107.235 2661.54 147.33 2649.17C186.324 2636.16 234.792 2619.44 278.343 2595.35C319.459 2570.61 366.389 2531.54 431.802 2520.98C500.059 2507.94 566.185 2555.92 599.447 2605.79C652.647 2689.32 751.8 2701.98 824.139 2667.84C826.764 2666.79 829.372 2665.7 831.991 2664.57C855.344 2654.51 877.342 2642.23 898.365 2629.25C967.269 2587.15 1032.07 2546.47 1102.17 2536.8C1174.25 2525.59 1232.04 2567.4 1259.55 2599.45C1279.56 2621.51 1297.39 2635.42 1309.85 2644.06C1312.19 2645.68 1314.31 2647.09 1316.21 2648.32C1317.95 2649.45 1319.54 2650.45 1320.93 2651.31C1341.79 2664.11 1361.95 2672.45 1383.61 2677.66C1384.8 2677.94 1385.98 2678.21 1387.16 2678.47C1410.02 2683.36 1435.35 2685.04 1462.75 2678.89C1475.91 2675.89 1488.68 2670.61 1496.19 2664.64L1487.81 2682C1487.81 2582.08 1487.68 2498.1 1487.54 2424.13C1487.51 2408.36 1487.49 2393.03 1487.46 2378.08C1487.46 2378.04 1487.46 2377.99 1487.46 2377.95C1487.33 2312.36 1487.22 2254.17 1487.22 2198.95C1487.22 2098.25 1487.01 2030.23 1486.79 1977.33C1486.72 1960.74 1486.65 1945.45 1486.58 1931.02C1486.43 1899.82 1486.3 1872.57 1486.26 1844.47C1486.18 1791.62 1485.95 1742.97 1485.74 1695.05C1485.72 1690.78 1485.7 1686.52 1485.68 1682.26C1485.45 1630.32 1485.23 1578.88 1485.22 1524.5C1485.22 1511.87 1485.95 1501.41 1486.85 1501.14C1487.75 1500.89 1488.47 1510.93 1488.47 1523.54C1488.48 1576.36 1488.69 1626.54 1488.92 1678.46C1488.94 1682.75 1488.96 1687.05 1488.98 1691.36C1489.2 1739.16 1489.42 1788.69 1489.51 1842.53C1489.55 1869.62 1489.67 1895.36 1489.82 1925.94C1489.88 1940.53 1489.96 1956.25 1490.03 1973.73C1490.26 2027.44 1490.47 2096.36 1490.47 2198.02C1490.47 2252.58 1490.58 2310.02 1490.71 2375.58C1490.73 2390.62 1490.76 2406.09 1490.79 2422.05C1490.93 2496.44 1491.06 2581.13 1491.06 2682L1498.21 2667.18C1490.19 2673.54 1477.31 2678.82 1464.09 2681.92C1437.64 2687.96 1413.32 2686.91 1390.04 2682.4C1388.72 2682.14 1387.41 2681.86 1386.12 2681.58C1364.18 2676.71 1342.52 2668.27 1320.09 2654.61C1317.09 2652.77 1313.29 2650.36 1308.84 2647.31C1296.06 2638.53 1277.68 2624.28 1257.14 2601.63C1229.77 2569.8 1173.21 2528.99 1102.41 2540.05C1033.41 2549.58 968.841 2589.96 900.078 2632.01C878.772 2645.16 856.42 2657.64 832.62 2667.84C831.897 2668.15 831.174 2668.45 830.449 2668.76C709.607 2723.44 630.949 2659.12 596.181 2608.15C581.874 2588.52 566.612 2572.07 550.11 2559.02C497.402 2515.6 435.904 2521 400.07 2533.8C392.846 2536.17 386.21 2538.75 380.013 2541.39C353.324 2552.97 334.433 2564.85 316.036 2576.5C303.161 2584.74 291.349 2592.64 280.487 2599.1C244.72 2618.85 208.509 2632.34 168.599 2646.16C124.037 2661.28 67.2854 2674.81 17.267 2677.32C17.1926 2677.32 17.1182 2677.33 17.0437 2677.33C11.1824 2677.64 5.21638 2677.8 -0.376411 2677.8ZM594.208 166.995C603.509 176.667 611.445 184.17 610.829 184.844C610.115 185.4 600.929 178.713 591.53 168.898C581.395 158.353 572.539 147.519 564.074 135.789C554.815 122.939 544.838 111.183 533.83 100.999C525.627 93.3619 518.618 87.6642 519.296 87.0273C519.8 86.3001 527.95 91.0476 536.344 98.8995C547.426 109.201 557.428 121.01 566.706 133.884C575.189 145.639 584.051 156.464 594.208 166.995ZM52.6915 2691.2C40.3125 2692.81 27.8727 2692.98 24.9509 2692.23C22.0868 2691.47 29.8941 2690.37 42.1937 2689.07C48.7409 2688.37 59.4426 2687.1 73.6808 2684.7C117.524 2676.83 198.001 2660.02 288.647 2613.38C329.65 2588.91 372.45 2553.72 429.464 2542.24C487.48 2528.23 549.088 2565.96 583.989 2616.98C612.408 2656.03 652.169 2689.84 700.861 2699.93C725.944 2705.28 749.374 2704.32 771.032 2700.63C818.781 2691.91 858.916 2671.73 906.207 2641.89C952.184 2614.98 1003.83 2571.93 1095.29 2551.45C1151.98 2539.14 1213.3 2565.38 1249.53 2608.53C1311.08 2680.66 1423.52 2726.16 1505.22 2675.99L1502.32 2682C1503.49 2060.46 1505.68 1439.32 1503.42 818.578C1502.65 607.668 1502.49 397.384 1502.52 186.403L1514.66 192.255C1503.19 201.172 1490.49 206.288 1477.48 210.112C1404.51 233.205 1300.31 196.401 1238.41 123.024C1190.99 62.8985 1108.13 57.8831 1052.37 82.7434C995.136 104.935 953.499 132.895 932.19 145.272C921.4 151.857 912.451 156.548 912.065 155.728C911.729 154.884 920.088 148.849 930.886 142.263C952.141 129.933 993.71 101.978 1051.43 79.6277C1107.42 54.4403 1193 59.8505 1240.81 120.842C1301.77 193.027 1403.47 229.113 1474.64 207.53C1488.06 203.786 1501.19 198.607 1512.63 189.71L1505.77 186.403C1505.74 396.298 1505.9 605.484 1506.66 815.312C1508.93 1436.66 1509.26 2059.44 1509.1 2682L1509.44 2681.3C1421.79 2735.02 1307.33 2686.56 1244.25 2613.32C1208.47 2571.07 1150.48 2546.66 1095.51 2558.71C1006.76 2578.98 954.783 2620.6 908.992 2646.38C862.527 2674.5 823.107 2693.56 775.649 2703.11C753.7 2707.24 729.743 2708.78 703.81 2703.85C652.534 2694.48 610.661 2659.27 581.335 2618.9C546.482 2568.11 486.31 2531.73 429.664 2545.55C373.787 2556.94 331.378 2591.71 290.294 2616.26C204.262 2660.74 128.549 2677.38 85.5396 2685.99C70.7926 2688.76 59.6073 2690.32 52.6915 2691.2ZM-132.025 2240.66C-132.271 2099.74 -131.833 1899.42 -131.448 1724.37C-131.26 1638.99 -131.083 1559.63 -131.008 1496.09C-130.891 1397.64 -130.114 1335.66 -129.342 1274.21C-129.334 1273.55 -129.326 1272.89 -129.318 1272.23C-128.546 1210.81 -127.787 1149.34 -127.668 1049.36C-127.547 948.549 -128.076 809.06 -128.609 668.36C-128.609 668.25 -128.609 668.14 -128.609 668.03C-129.139 528.08 -131.321 386.123 -131.196 283.539C-131.13 229.756 -131.024 179.077 -130.884 131.403L-123.484 129.751C-102.376 175.325 -49.4918 186.497 -7.89715 188.424C35.2878 190.203 75.4596 184.061 111.796 176.668C184.4 160.998 243.873 140.476 288.525 117.572C318.404 100.326 342.897 83.9989 364.551 73.3585C399.587 55.5947 440.824 41.879 481.381 51.3076C521.969 60.3466 554.704 90.9182 579.149 124.881C614.244 175.351 671.463 215.655 734.816 215.301C797.677 216.061 855.489 188.482 906.39 159.002C925.42 147.891 895.928 170.958 858.488 188.297C857.148 188.919 855.801 189.537 854.448 190.15C841.552 195.934 830.086 200.684 813.464 206.117C789.343 213.921 770.514 217.203 753.224 218.582C733.2 224.173 630.373 212.968 576.283 126.955C549.148 88.0493 508.073 54.1771 463.399 51.799C419.176 48.7413 381.925 68.1585 358.137 80.4195C339.06 90.3517 317.382 104.986 290.367 120.796C246.535 143.777 188.453 164.721 115.5 181.398C78.9921 189.271 38.444 196.035 -6.07797 194.791C-48.6382 193.242 -105.807 183.143 -129.773 132.707L-123.935 131.403C-123.924 179.255 -123.941 230.269 -124.008 284.561C-124.13 385.246 -125.894 524.361 -125.361 665.062C-125.36 665.447 -125.358 665.831 -125.357 666.216C-124.828 805.887 -124.294 946.733 -124.416 1049.22C-124.54 1152.82 -125.337 1217.09 -126.118 1279.32C-126.126 1279.92 -126.134 1280.53 -126.142 1281.13C-126.907 1342.02 -127.648 1401.14 -127.76 1495.96C-127.837 1560.89 -128.011 1641.19 -128.2 1727.11C-128.584 1901.41 -129.021 2098.94 -128.777 2238.65C-128.755 2251.26 -129.466 2261.94 -130.363 2262.5C-131.259 2263.04 -132.002 2253.27 -132.025 2240.66ZM-152.268 2237.76C-155.869 1841.8 -154.858 1443.63 -151.054 1053.18C-150.933 951.272 -150.68 809.06 -150.426 667.041C-150.422 665.436 -150.418 663.83 -150.414 662.225C-150.162 521.743 -149.912 381.878 -149.789 281.461C-149.724 228.477 -149.656 178.488 -149.582 131.403L-106.564 121.796C-68.0538 190.575 42.3287 169.898 107.356 157.836C177.722 142.553 237.715 121.322 278.571 100.152C307.786 83.1544 334.436 65.3256 357.876 54.0211C459.397 5.15688 507.223 35.1165 543.217 58.8366C544.244 59.5941 545.269 60.3669 546.292 61.1552C546.361 61.205 546.43 61.255 546.5 61.305C547.813 62.2647 548.907 63.1064 549.469 63.5437C550.613 64.4347 551.538 65.1888 551.884 65.4716C552.641 66.0897 553.267 66.6184 553.491 66.8073C554.406 67.5774 555.448 68.4787 556.118 69.0682C562.81 74.5735 580.772 92.9632 592.37 109.261C593.353 110.597 594.311 111.921 595.247 113.233C604.738 126.49 612.254 135.405 620.939 144.496C621.88 145.474 622.797 146.41 623.766 147.381C632.452 155.955 642.189 164.884 658.045 174.695C667.708 180.591 674.816 184.363 673.18 184.655C671.511 184.886 661.707 181.144 651.993 174.744C635.217 163.653 625.055 153.59 616.537 144.646C615.596 143.643 614.656 142.624 613.718 141.588C606.295 133.348 600.113 125.666 592.601 115.148C591.057 112.979 589.447 110.774 587.755 108.523C571.96 87.7379 557.579 73.8066 542.942 62.6916C507.057 37.5938 453.898 7.3119 351.014 61.2388C330.425 71.7948 306.824 87.5689 280.188 102.983C240 123.836 181.268 144.832 110.611 160.467C75.1757 167.935 35.8404 174.157 -5.53722 172.785C-45.9663 171.371 -92.6894 160.493 -109.503 123.178L-146.334 131.403C-146.408 178.312 -146.476 228.25 -146.541 281.329C-146.664 381.933 -146.914 521.96 -147.166 662.324C-147.169 663.974 -147.171 665.622 -147.174 667.272C-147.429 809.37 -147.685 951.374 -147.807 1053.05C-148.28 1449.35 -146.654 1837.47 -149.02 2235.71C-148.892 2309 -148.842 2375.98 -148.796 2438.04C-148.745 2506.34 -148.699 2568.7 -148.557 2627L-146.509 2636.17C-118.498 2694.51 -55.372 2706.33 -10.6584 2708.21C36.6717 2709.85 80.2534 2702.52 122.051 2692.77C148.161 2685.71 211.248 2673.87 298.164 2630.04C308.542 2624.04 318.535 2617.56 328.765 2611.06C356 2593.82 385.376 2575.24 419.078 2565.62C470.135 2548.31 527.961 2573.11 566.641 2629.53C593.547 2666.55 632.009 2703.04 683.63 2717.93C711.613 2726.03 738.044 2726.62 762.067 2723.83C818.837 2716.35 864.258 2694.38 918.181 2661.18C961.36 2635.71 1012.03 2597.81 1087.43 2577.21C1134.85 2563.98 1191.98 2577.17 1231.97 2624.46C1294.69 2697.17 1416.51 2757.79 1520.02 2694.6L1526.14 2689.66L1526.1 2682C1526.36 2555.02 1526.66 2434.47 1526.93 2346.78C1527.24 2244.87 1527.53 2187.34 1527.77 2146.64C1527.83 2135.3 1527.9 2125.34 1527.96 2116.19C1528.1 2092.3 1528.22 2073.75 1528.3 2049.43C1528.85 1874.34 1528.47 1751.75 1527.68 1550.92C1527.63 1538.33 1528.31 1527.36 1529.21 1526.41C1530.1 1525.46 1530.87 1534.9 1530.92 1547.49C1531.72 1748.61 1532.1 1873.07 1531.54 2050.55C1531.46 2075.94 1531.34 2095.8 1531.19 2120.12C1531.13 2129.13 1531.07 2138.76 1531.01 2149.51C1530.77 2189.53 1530.49 2246.46 1530.18 2347.84C1529.91 2435.25 1529.61 2555.42 1529.35 2682L1529.4 2691.21L1522.04 2697.14C1415.62 2761.97 1292.9 2699.82 1229.56 2626.64C1190.07 2580.21 1135.32 2567.54 1088.68 2580.25C1013.7 2600.59 962.952 2638.56 919.897 2663.95C867.546 2696.17 823.174 2718.01 766.957 2726.49C742.676 2729.79 715.693 2729.85 686.808 2722.2C632.355 2707.87 591.82 2669.77 564 2631.44C526.126 2576.73 471.94 2552.55 422.729 2568.01C389.713 2576.79 360.422 2594.92 333.463 2611.95C322.137 2619.12 311.176 2626.28 299.783 2632.87C212.841 2676.6 155.176 2686.97 132.9 2693.55C89.4863 2704.28 44.1609 2712.54 -5.40241 2711.65C-52.0862 2710.34 -119.284 2699.76 -149.454 2637.56L-151.811 2627C-151.955 2567.46 -152.001 2504.21 -152.052 2435.7C-152.097 2374.31 -152.144 2308.7 -152.268 2237.76ZM1528.4 827.12C1528.45 839.712 1527.75 850.635 1526.86 851.529C1525.96 852.417 1525.2 842.943 1525.15 830.353C1524.91 763.847 1524.71 716.036 1524.55 678.661C1524.26 609.483 1524.12 576.05 1524.14 525.979C1524.2 406.906 1524.23 291.612 1524.26 186.403L1524.12 156.767L1501.12 175.243C1495.84 179.44 1488.75 183.088 1481.46 185.883C1389.29 217.315 1300.3 161.821 1254.14 108.758C1211.59 58.5956 1150.29 42.4246 1112.08 47.4107C1098.44 48.4931 1087.73 50.1712 1087.66 49.228C1087.63 48.3587 1098.41 45.1985 1112.32 44.133C1151.04 39.1292 1213.64 55.9103 1256.54 106.577C1302 158.797 1388.78 212.931 1478.76 183.432C1486.35 180.655 1493.84 176.888 1499.1 172.702L1527.33 150.018L1527.51 186.403C1527.48 291.262 1527.45 406.289 1527.39 525.385C1527.37 573.948 1527.5 605.513 1527.79 673.152C1527.94 710.493 1528.15 758.839 1528.4 827.12Z" fill="#457B9D"/>
</g>
<defs>
<linearGradient id="paint0_linear_216_1263" x1="718" y1="121" x2="718" y2="3345.5" gradientUnits="userSpaceOnUse">
<stop stop-color="#1D3557"/>
<stop offset="1" stop-color="#1D3557"/>
</linearGradient>
<clipPath id="clip0_216_1263">
<rect width="1440" height="358" fill="white"/>
</clipPath>
</defs>
</svg>
