<svg width="1440" height="436" viewBox="0 0 1440 436" fill="none" xmlns="http://www.w3.org/2000/svg">
<g clip-path="url(#clip0_216_1263)">
<rect width="1440" height="436" fill="#FF0000"/>
<rect y="-2403" width="1440" height="3372" fill="white"/>
<path d="M1243.5 -2284.6C1146.28 -2391.81 1036.5 -2329.1 910 -2250.6C825.071 -2197.89 686.5 -2132.6 580.5 -2279.1C473.75 -2426.63 357 -2323.45 289 -2284.6C226 -2248.6 -67.9999 -2146.1 -127 -2271.6L-127 224C-68 349.5 226 247 289 211C357 172.144 473.75 68.9639 580.5 216.5C686.5 363 825.071 297.703 910 245C1036.5 166.5 1146.28 103.787 1243.5 211C1350.5 329 1472.5 308.833 1510 279V-2216.6C1472.5 -2186.76 1350.5 -2166.6 1243.5 -2284.6Z" fill="url(#paint0_linear_216_1263)"/>
<path d="M1133.01 -2321.06C1166.75 -2320.09 1201.75 -2301.29 1228.59 -2271.08C1251.68 -2245.67 1278.14 -2223.84 1304.87 -2208.03C1305.76 -2207.5 1306.65 -2206.98 1307.53 -2206.47C1333.2 -2191.75 1362.06 -2179.57 1399.11 -2174.22C1403.88 -2173.56 1408.64 -2173.04 1413.72 -2172.67C1444.34 -2171.57 1480.95 -2169.9 1524.02 -2198.97L1487.48 -2216.6C1487.29 -2198.93 1487.1 -2179.8 1486.9 -2158.97C1484.75 -1932.59 1486.18 -1754.1 1486.63 -1698.58C1487.52 -1587.23 1487.54 -1468.45 1487.57 -1306.37C1487.57 -1291.55 1487.57 -1276.36 1487.57 -1260.79C1487.57 -1248.17 1486.85 -1237.72 1485.95 -1237.43C1485.05 -1237.15 1484.32 -1247.14 1484.32 -1259.76C1484.32 -1275.01 1484.32 -1289.88 1484.31 -1304.36C1484.31 -1304.42 1484.31 -1304.49 1484.31 -1304.56C1484.29 -1467.65 1484.27 -1583.85 1483.4 -1692.58C1482.94 -1749.31 1481.48 -1932.18 1483.69 -2164.14C1483.86 -2182.95 1484.04 -2200.37 1484.2 -2216.6L1526.06 -2196.41C1478.08 -2164.48 1438.73 -2167.96 1406.04 -2170.06C1401.07 -2170.59 1396.33 -2171.25 1391.68 -2172.04C1391.57 -2172.06 1391.46 -2172.08 1391.35 -2172.1C1353.75 -2178.8 1326.34 -2191.48 1301.66 -2206.15C1301.14 -2206.46 1300.63 -2206.77 1300.11 -2207.09C1273.78 -2223.14 1248.47 -2244.43 1226.2 -2268.91C1199.35 -2299.1 1165.12 -2316.99 1132.46 -2317.83C1121.88 -2318.37 1113.02 -2318.06 1113.03 -2318.99C1113.05 -2319.86 1122.12 -2321.64 1133.01 -2321.06ZM-0.376411 274.801C-40.6268 275.082 -98.4265 265.663 -118.958 220.219L-118.113 224C-118.063 196.116 -117.928 168.133 -117.744 141.377C-117.211 63.5378 -116.251 -6.9104 -115.662 -40.0669C-115.086 -72.4761 -114.9 -108.488 -114.785 -151.453C-114.759 -161.305 -114.736 -171.525 -114.713 -182.095C-114.636 -217.009 -114.549 -255.855 -114.293 -298.495C-113.35 -455.13 -113.31 -557.249 -113.395 -630.179C-113.413 -645.181 -113.437 -659.138 -113.46 -672.2C-113.46 -672.223 -113.46 -672.244 -113.46 -672.266C-113.544 -721.573 -113.605 -758.362 -113.235 -792.195C-112.577 -852.417 -111.993 -901.594 -110.853 -960.94C-109.28 -1042.79 -109.467 -1159.37 -110.548 -1235.23C-110.608 -1239.4 -110.671 -1243.66 -110.732 -1247.96C-111.521 -1302.96 -112.492 -1370.68 -113.215 -1472.22C-113.816 -1556.59 -113.769 -1630.11 -113.6 -1695.19C-113.551 -1713.84 -113.491 -1731.64 -113.435 -1748.72C-113.296 -1791.85 -113.17 -1830.45 -113.243 -1866.81C-113.641 -2064.54 -113.239 -2188.88 -112.537 -2271.6L-140.088 -2265.44C-134.402 -2253.1 -126.835 -2242.9 -118.431 -2234.69C-60.8649 -2187.78 -18.0626 -2197.22 7.20798 -2194.01C15.3368 -2193.86 22.25 -2193.97 28.9536 -2194.23C87.9815 -2197.05 140.503 -2208.58 201.713 -2227.48C215.126 -2231.71 229.409 -2236.57 243.9 -2242C264.549 -2249.81 282.655 -2257.38 299.261 -2266.64C320.706 -2279.09 336.496 -2289.97 350.763 -2298.56C361.461 -2305.09 370.866 -2310.45 379.843 -2315.06C380.009 -2315.14 380.174 -2315.23 380.34 -2315.31C381.592 -2315.95 382.841 -2316.58 384.073 -2317.19C385.005 -2317.65 385.934 -2318.1 386.869 -2318.55C387.231 -2318.74 387.558 -2318.9 387.802 -2319.02C387.995 -2319.12 388.145 -2319.2 388.242 -2319.24C388.26 -2319.25 388.278 -2319.26 388.296 -2319.27C390.053 -2320.15 391.582 -2320.85 391.895 -2320.99C392.441 -2321.24 392.928 -2321.46 393.177 -2321.57C394.489 -2322.16 396.188 -2322.88 397.319 -2323.35C400.227 -2324.54 405.282 -2326.65 413.171 -2329.19C420.023 -2331.39 426.625 -2333.23 434.883 -2334.71C435.403 -2334.81 435.923 -2334.89 436.443 -2334.98C444.488 -2336.28 453.936 -2337.22 465.507 -2336.19C476.045 -2335.3 485.242 -2331.67 486.206 -2330.41C487.228 -2329.07 480.18 -2330.92 470.092 -2332.36C459.619 -2333.8 451.091 -2333.47 443.264 -2332.61C442.768 -2332.55 442.273 -2332.49 441.776 -2332.43C433.602 -2331.39 425.81 -2329.63 417.408 -2327.1C414.598 -2326.25 411.699 -2325.29 408.991 -2324.33C404.13 -2322.58 398.608 -2320.36 392.049 -2317.34C390.732 -2316.73 389.373 -2316.1 387.987 -2315.43C379.087 -2311.15 368.818 -2305.58 357.241 -2298.65C341.622 -2289.45 324.348 -2277.49 300.873 -2263.82C282.024 -2253.36 262.16 -2245.26 239.216 -2236.77C225.206 -2231.65 211.722 -2227.14 198.186 -2222.95C136.475 -2204.27 79.8193 -2191.72 16.3197 -2190.55C7.5206 -2190.48 -0.723877 -2190.69 -9.87413 -2191.31C-35.1651 -2195.72 -73.8806 -2188.84 -125.72 -2237.58C-132.314 -2244.96 -138.289 -2253.74 -143.043 -2264.05L-109.272 -2271.6C-109.97 -2192.21 -110.399 -2069.5 -109.996 -1869.02C-109.919 -1830.85 -110.054 -1789.68 -110.196 -1745.82C-110.25 -1729.08 -110.302 -1711.92 -110.348 -1694.4C-110.515 -1630.33 -110.56 -1559.12 -109.98 -1477.66C-109.272 -1378.39 -108.33 -1312.52 -107.545 -1257.76C-107.517 -1255.87 -107.489 -1253.98 -107.461 -1252.09C-107.427 -1249.74 -107.394 -1247.41 -107.361 -1245.1C-106.208 -1164.25 -105.98 -1040.21 -107.717 -949.792C-108.807 -893.051 -109.369 -845.984 -110.024 -786.093C-110.346 -756.64 -110.293 -725.169 -110.212 -676.851C-110.189 -663.288 -110.167 -648.375 -110.148 -631.828C-110.061 -557.591 -110.1 -453.915 -111.053 -295.526C-111.301 -254.231 -111.384 -217.074 -111.461 -182.359C-111.485 -171.575 -111.51 -160.993 -111.537 -150.628C-111.653 -107.455 -111.841 -67.271 -112.507 -29.8091C-113.054 0.983887 -113.99 69.1633 -114.509 144.873C-114.688 171.07 -114.815 197.821 -114.863 224L-116.016 218.836C-97.5065 259.859 -47.0305 270.063 -11.9343 271.219C-6.22932 271.439 -0.320358 271.486 5.44807 271.375C55.8266 270.31 107.235 258.535 147.33 246.172C186.324 233.158 234.792 216.436 278.343 192.35C319.459 167.613 366.389 128.542 431.802 117.976C500.059 104.941 566.185 152.922 599.447 202.791C652.647 286.315 751.8 298.978 824.139 264.842C826.764 263.786 829.372 262.699 831.991 261.572C855.344 251.51 877.342 239.228 898.365 226.25C967.269 184.149 1032.07 143.467 1102.17 133.801C1174.25 122.588 1232.04 164.395 1259.55 196.449C1279.56 218.51 1297.39 232.421 1309.85 241.063C1312.19 242.679 1314.31 244.089 1316.21 245.323C1317.95 246.451 1319.54 247.451 1320.93 248.309C1341.79 261.112 1361.95 269.447 1383.61 274.658C1384.8 274.94 1385.98 275.209 1387.16 275.466C1410.02 280.362 1435.35 282.036 1462.75 275.894C1475.91 272.888 1488.68 267.614 1496.19 261.636L1487.81 279C1487.81 179.081 1487.68 95.1011 1487.54 21.1277C1487.51 5.35986 1487.49 -9.97144 1487.46 -24.9177C1487.46 -24.9617 1487.46 -25.0056 1487.46 -25.0496C1487.33 -90.6436 1487.22 -148.832 1487.22 -204.052C1487.22 -304.748 1487.01 -372.766 1486.79 -425.67C1486.72 -442.262 1486.65 -457.551 1486.58 -471.979C1486.43 -503.177 1486.3 -530.427 1486.26 -558.529C1486.18 -611.384 1485.95 -660.029 1485.74 -707.945C1485.72 -712.216 1485.7 -716.481 1485.68 -720.743C1485.45 -772.685 1485.23 -824.123 1485.22 -878.504C1485.22 -891.126 1485.95 -901.59 1486.85 -901.857C1487.75 -902.109 1488.47 -892.075 1488.47 -879.461C1488.48 -826.639 1488.69 -776.464 1488.92 -724.536C1488.94 -720.252 1488.96 -715.949 1488.98 -711.639C1489.2 -663.843 1489.42 -614.308 1489.51 -560.475C1489.55 -533.379 1489.67 -507.641 1489.82 -477.059C1489.88 -462.465 1489.96 -446.751 1490.03 -429.265C1490.26 -375.557 1490.47 -306.643 1490.47 -204.976C1490.47 -150.421 1490.58 -92.9778 1490.71 -27.4243C1490.73 -12.3835 1490.76 3.09009 1490.79 19.0498C1490.93 93.4419 1491.06 178.126 1491.06 279L1498.21 264.181C1490.19 270.544 1477.31 275.822 1464.09 278.92C1437.64 284.955 1413.32 283.915 1390.04 279.402C1388.72 279.137 1387.41 278.864 1386.12 278.579C1364.18 273.708 1342.52 265.271 1320.09 251.606C1317.09 249.772 1313.29 247.365 1308.84 244.312C1296.06 235.526 1277.68 221.275 1257.14 198.631C1229.77 166.803 1173.21 125.993 1102.41 137.046C1033.41 146.581 968.841 186.963 900.078 229.011C878.772 242.164 856.42 254.638 832.62 264.838C831.897 265.147 831.174 265.454 830.449 265.758C709.607 320.443 630.949 256.118 596.181 205.154C581.874 185.525 566.612 169.068 550.11 156.021C497.402 112.597 435.904 118.003 400.07 130.8C392.846 133.174 386.21 135.752 380.013 138.394C353.324 149.972 334.433 161.849 316.036 173.503C303.161 181.738 291.349 189.638 280.487 196.102C244.72 215.849 208.509 229.343 168.599 243.164C124.037 258.277 67.2854 271.808 17.267 274.321C17.1926 274.325 17.1182 274.329 17.0437 274.333C11.1824 274.637 5.21638 274.795 -0.376411 274.801ZM594.208 -2236C603.509 -2226.33 611.445 -2218.83 610.829 -2218.16C610.115 -2217.6 600.929 -2224.29 591.53 -2234.1C581.395 -2244.65 572.539 -2255.48 564.074 -2267.21C554.815 -2280.06 544.838 -2291.82 533.83 -2302C525.627 -2309.64 518.618 -2315.34 519.296 -2315.97C519.8 -2316.7 527.95 -2311.95 536.344 -2304.1C547.426 -2293.8 557.428 -2281.99 566.706 -2269.12C575.189 -2257.36 584.051 -2246.54 594.208 -2236ZM52.6915 288.203C40.3125 289.807 27.8727 289.978 24.9509 289.231C22.0868 288.469 29.8941 287.367 42.1937 286.07C48.7409 285.375 59.4426 284.104 73.6808 281.705C117.524 273.831 198.001 257.021 288.647 210.382C329.65 185.913 372.45 150.718 429.464 139.236C487.48 125.227 549.088 162.956 583.989 213.975C612.408 253.03 652.169 286.843 700.861 296.928C725.944 302.277 749.374 301.32 771.032 297.63C818.781 288.905 858.916 268.729 906.207 238.887C952.184 211.98 1003.83 168.934 1095.29 148.448C1151.98 136.138 1213.3 162.384 1249.53 205.533C1311.08 277.659 1423.52 323.162 1505.22 272.989L1502.32 279C1503.49 -342.539 1505.68 -963.684 1503.42 -1584.42C1502.65 -1795.33 1502.49 -2005.62 1502.52 -2216.6L1514.66 -2210.75C1503.19 -2201.83 1490.49 -2196.71 1477.48 -2192.89C1404.51 -2169.8 1300.31 -2206.6 1238.41 -2279.98C1190.99 -2340.1 1108.13 -2345.12 1052.37 -2320.26C995.136 -2298.07 953.499 -2270.11 932.19 -2257.73C921.4 -2251.14 912.451 -2246.45 912.065 -2247.27C911.729 -2248.12 920.088 -2254.15 930.886 -2260.74C952.141 -2273.07 993.71 -2301.02 1051.43 -2323.37C1107.42 -2348.56 1193 -2343.15 1240.81 -2282.16C1301.77 -2209.97 1403.47 -2173.89 1474.64 -2195.47C1488.06 -2199.21 1501.19 -2204.39 1512.63 -2213.29L1505.77 -2216.6C1505.74 -2006.7 1505.9 -1797.52 1506.66 -1587.69C1508.93 -966.338 1509.26 -343.558 1509.1 279L1509.44 278.298C1421.79 332.023 1307.33 283.562 1244.25 210.324C1208.47 168.071 1150.48 143.659 1095.51 155.707C1006.76 175.976 954.783 217.604 908.992 243.376C862.527 271.5 823.107 290.563 775.649 300.107C753.7 304.244 729.743 305.778 703.81 300.854C652.534 291.477 610.661 256.274 581.335 215.896C546.482 165.113 486.31 128.732 429.664 142.554C373.787 153.942 331.378 188.713 290.294 213.265C204.262 257.745 128.549 274.375 85.5396 282.993C70.7926 285.761 59.6073 287.324 52.6915 288.203ZM-132.025 -162.338C-132.271 -303.255 -131.833 -503.575 -131.448 -678.632C-131.26 -764.005 -131.083 -843.372 -131.008 -906.913C-130.891 -1005.36 -130.114 -1067.34 -129.342 -1128.79C-129.334 -1129.45 -129.326 -1130.11 -129.318 -1130.77C-128.546 -1192.19 -127.787 -1253.66 -127.668 -1353.64C-127.547 -1454.45 -128.076 -1593.94 -128.609 -1734.64C-128.609 -1734.75 -128.609 -1734.86 -128.609 -1734.97C-129.139 -1874.92 -131.321 -2016.88 -131.196 -2119.46C-131.13 -2173.24 -131.024 -2223.92 -130.884 -2271.6L-123.484 -2273.25C-102.376 -2227.68 -49.4918 -2216.5 -7.89715 -2214.58C35.2878 -2212.8 75.4596 -2218.94 111.796 -2226.33C184.4 -2242 243.873 -2262.52 288.525 -2285.43C318.404 -2302.67 342.897 -2319 364.551 -2329.64C399.587 -2347.41 440.824 -2361.12 481.381 -2351.69C521.969 -2342.65 554.704 -2312.08 579.149 -2278.12C614.244 -2227.65 671.463 -2187.35 734.816 -2187.7C797.677 -2186.94 855.489 -2214.52 906.39 -2244C925.42 -2255.11 895.928 -2232.04 858.488 -2214.7C857.148 -2214.08 855.801 -2213.46 854.448 -2212.85C841.552 -2207.07 830.086 -2202.32 813.464 -2196.88C789.343 -2189.08 770.514 -2185.8 753.224 -2184.42C733.2 -2178.83 630.373 -2190.03 576.283 -2276.05C549.148 -2314.95 508.073 -2348.82 463.399 -2351.2C419.176 -2354.26 381.925 -2334.84 358.137 -2322.58C339.06 -2312.65 317.382 -2298.01 290.367 -2282.2C246.535 -2259.22 188.453 -2238.28 115.5 -2221.6C78.9921 -2213.73 38.444 -2206.97 -6.07797 -2208.21C-48.6382 -2209.76 -105.807 -2219.86 -129.773 -2270.29L-123.935 -2271.6C-123.924 -2223.75 -123.941 -2172.73 -124.008 -2118.44C-124.13 -2017.75 -125.894 -1878.64 -125.361 -1737.94C-125.36 -1737.55 -125.358 -1737.17 -125.357 -1736.78C-124.828 -1597.11 -124.294 -1456.27 -124.416 -1353.78C-124.54 -1250.18 -125.337 -1185.91 -126.118 -1123.68C-126.126 -1123.08 -126.134 -1122.47 -126.142 -1121.87C-126.907 -1060.98 -127.648 -1001.86 -127.76 -907.045C-127.837 -842.105 -128.011 -761.814 -128.2 -675.895C-128.584 -501.588 -129.021 -304.062 -128.777 -164.35C-128.755 -151.741 -129.466 -141.059 -130.363 -140.502C-131.259 -139.956 -132.002 -149.734 -132.025 -162.338ZM-152.268 -165.24C-155.869 -561.202 -154.858 -959.369 -151.054 -1349.82C-150.933 -1451.73 -150.68 -1593.94 -150.426 -1735.96C-150.422 -1737.56 -150.418 -1739.17 -150.414 -1740.77C-150.162 -1881.26 -149.912 -2021.12 -149.789 -2121.54C-149.724 -2174.52 -149.656 -2224.51 -149.582 -2271.6L-106.564 -2281.2C-68.0538 -2212.43 42.3287 -2233.1 107.356 -2245.16C177.722 -2260.45 237.715 -2281.68 278.571 -2302.85C307.786 -2319.85 334.436 -2337.67 357.876 -2348.98C459.397 -2397.84 507.223 -2367.88 543.217 -2344.16C544.244 -2343.41 545.269 -2342.63 546.292 -2341.84C546.361 -2341.79 546.43 -2341.75 546.5 -2341.7C547.813 -2340.74 548.907 -2339.89 549.469 -2339.46C550.613 -2338.57 551.538 -2337.81 551.884 -2337.53C552.641 -2336.91 553.267 -2336.38 553.491 -2336.19C554.406 -2335.42 555.448 -2334.52 556.118 -2333.93C562.81 -2328.43 580.772 -2310.04 592.37 -2293.74C593.353 -2292.4 594.311 -2291.08 595.247 -2289.77C604.738 -2276.51 612.254 -2267.59 620.939 -2258.5C621.88 -2257.53 622.797 -2256.59 623.766 -2255.62C632.452 -2247.05 642.189 -2238.12 658.045 -2228.31C667.708 -2222.41 674.816 -2218.64 673.18 -2218.35C671.511 -2218.11 661.707 -2221.86 651.993 -2228.26C635.217 -2239.35 625.055 -2249.41 616.537 -2258.35C615.596 -2259.36 614.656 -2260.38 613.718 -2261.41C606.295 -2269.65 600.113 -2277.33 592.601 -2287.85C591.057 -2290.02 589.447 -2292.23 587.755 -2294.48C571.96 -2315.26 557.579 -2329.19 542.942 -2340.31C507.057 -2365.41 453.898 -2395.69 351.014 -2341.76C330.425 -2331.21 306.824 -2315.43 280.188 -2300.02C240 -2279.16 181.268 -2258.17 110.611 -2242.53C75.1757 -2235.06 35.8404 -2228.84 -5.53722 -2230.22C-45.9663 -2231.63 -92.6894 -2242.51 -109.503 -2279.82L-146.334 -2271.6C-146.408 -2224.69 -146.476 -2174.75 -146.541 -2121.67C-146.664 -2021.07 -146.914 -1881.04 -147.166 -1740.68C-147.169 -1739.03 -147.171 -1737.38 -147.174 -1735.73C-147.429 -1593.63 -147.685 -1451.63 -147.807 -1349.95C-148.28 -953.645 -146.654 -565.534 -149.02 -167.285C-148.892 -94.0024 -148.842 -27.0225 -148.796 35.0371C-148.745 103.339 -148.699 165.7 -148.557 224L-146.509 233.171C-118.498 291.506 -55.372 303.326 -10.6584 305.211C36.6717 306.846 80.2534 299.52 122.051 289.771C148.161 282.711 211.248 270.874 298.164 227.038C308.542 221.036 318.535 214.562 328.765 208.065C356 190.822 385.376 172.245 419.078 162.623C470.135 145.307 527.961 170.112 566.641 226.527C593.547 263.546 632.009 300.041 683.63 314.928C711.613 323.034 738.044 323.624 762.067 320.826C818.837 313.351 864.258 291.383 918.181 258.183C961.36 232.713 1012.03 194.809 1087.43 174.207C1134.85 160.985 1191.98 174.169 1231.97 221.458C1294.69 294.172 1416.51 354.786 1520.02 291.595L1526.14 286.66L1526.1 279C1526.36 152.018 1526.66 31.4658 1526.93 -56.2192C1527.24 -158.132 1527.53 -215.664 1527.77 -256.365C1527.83 -267.698 1527.9 -277.663 1527.96 -286.809C1528.1 -310.7 1528.22 -329.252 1528.3 -353.568C1528.85 -528.663 1528.47 -651.251 1527.68 -852.084C1527.63 -864.669 1528.31 -875.642 1529.21 -876.591C1530.1 -877.537 1530.87 -868.098 1530.92 -855.515C1531.72 -654.386 1532.1 -529.928 1531.54 -352.446C1531.46 -327.059 1531.34 -307.195 1531.19 -282.884C1531.13 -273.869 1531.07 -264.243 1531.01 -253.495C1530.77 -213.47 1530.49 -156.541 1530.18 -55.1638C1529.91 32.2534 1529.61 152.419 1529.35 279L1529.4 288.207L1522.04 294.139C1415.62 358.972 1292.9 296.816 1229.56 223.641C1190.07 177.21 1135.32 164.538 1088.68 177.253C1013.7 197.589 962.952 235.556 919.897 260.948C867.546 293.172 823.174 315.015 766.957 323.49C742.676 326.786 715.693 326.849 686.808 319.197C632.355 304.871 591.82 266.773 564 228.438C526.126 173.725 471.94 149.553 422.729 165.012C389.713 173.794 360.422 191.922 333.463 208.945C322.137 216.117 311.176 223.279 299.783 229.871C212.841 273.597 155.176 283.966 132.9 290.548C89.4863 301.279 44.1609 309.545 -5.40241 308.652C-52.0862 307.336 -119.284 296.761 -149.454 234.556L-151.811 224C-151.955 164.461 -152.001 101.208 -152.052 32.6953C-152.097 -28.6851 -152.144 -94.3037 -152.268 -165.24ZM1528.4 -1575.88C1528.45 -1563.29 1527.75 -1552.37 1526.86 -1551.47C1525.96 -1550.58 1525.2 -1560.06 1525.15 -1572.65C1524.91 -1639.15 1524.71 -1686.96 1524.55 -1724.34C1524.26 -1793.52 1524.12 -1826.95 1524.14 -1877.02C1524.2 -1996.09 1524.23 -2111.39 1524.26 -2216.6L1524.12 -2246.23L1501.12 -2227.76C1495.84 -2223.56 1488.75 -2219.91 1481.46 -2217.12C1389.29 -2185.68 1300.3 -2241.18 1254.14 -2294.24C1211.59 -2344.4 1150.29 -2360.58 1112.08 -2355.59C1098.44 -2354.51 1087.73 -2352.83 1087.66 -2353.77C1087.63 -2354.64 1098.41 -2357.8 1112.32 -2358.87C1151.04 -2363.87 1213.64 -2347.09 1256.54 -2296.42C1302 -2244.2 1388.78 -2190.07 1478.76 -2219.57C1486.35 -2222.35 1493.84 -2226.11 1499.1 -2230.3L1527.33 -2252.98L1527.51 -2216.6C1527.48 -2111.74 1527.45 -1996.71 1527.39 -1877.61C1527.37 -1829.05 1527.5 -1797.49 1527.79 -1729.85C1527.94 -1692.51 1528.15 -1644.16 1528.4 -1575.88Z" fill="#457B9D"/>
</g>
<defs>
<linearGradient id="paint0_linear_216_1263" x1="718" y1="-2282" x2="718" y2="942.499" gradientUnits="userSpaceOnUse">
<stop stop-color="#1D3557"/>
<stop offset="1" stop-color="#1D3557"/>
</linearGradient>
<clipPath id="clip0_216_1263">
<rect width="1440" height="436" fill="white"/>
</clipPath>
</defs>
</svg>
