<svg width="26" height="26" viewBox="0 0 26 26" fill="none" xmlns="http://www.w3.org/2000/svg">
<path d="M17.4948 6.99379C16.8809 6.01957 16.256 5.03185 15.4259 4.25826C14.5958 3.48275 13.5205 2.93487 12.418 3.00625C11.4498 3.06991 10.5525 3.60621 9.84414 4.30649C9.13575 5.00677 8.58538 5.8691 8.04409 6.72371C6.58007 9.03096 5.11424 11.3382 3.65022 13.6474C2.95454 14.7432 2.2407 15.8871 2.04816 17.1932C1.81566 18.7712 2.44232 20.3782 3.55395 21.4276C4.71645 22.5253 6.60005 22.4366 8.01503 22.1356C9.56623 21.8058 11.0829 21.1846 12.665 21.1865C14.02 21.1865 15.3297 21.6456 16.6484 21.9794C17.9653 22.3112 19.3802 22.5157 20.6517 22.0218C22.2302 21.4103 23.3636 19.6721 23.3327 17.8877C23.3037 16.2595 21.5672 13.4506 21.5672 13.4506C21.5672 13.4506 18.852 9.14624 17.4948 6.99379Z" fill="white"/>
</svg>
