<svg width="26" height="26" viewBox="0 0 26 26" fill="none" xmlns="http://www.w3.org/2000/svg">
<path fill-rule="evenodd" clip-rule="evenodd" d="M20.2084 5.12417C19.4167 4.33254 17.6129 4.72398 15.4365 5.97875C14.7847 3.55237 13.786 2 12.6664 2C11.5469 2 10.5482 3.55227 9.89646 5.97853C7.7201 4.72387 5.91641 4.33249 5.12481 5.12409C4.33313 5.91578 4.72467 7.71975 5.97963 9.89641C3.55274 10.5481 2 11.547 2 12.6667C2 13.7862 3.55219 14.7848 5.97835 15.4366C4.7233 17.6133 4.33171 19.4174 5.12341 20.2091C5.91516 21.0009 7.71936 20.6092 9.89624 19.354C10.548 21.7807 11.5468 23.3333 12.6664 23.3333C13.7861 23.3333 14.7849 21.7806 15.4367 19.3538C17.6137 20.6091 19.418 21.0008 20.2098 20.209C21.0015 19.4173 20.6099 17.6133 19.3549 15.4366C21.7811 14.7849 23.3333 13.7862 23.3333 12.6667C23.3333 11.547 21.7806 10.5481 19.3536 9.89639C20.6085 7.71977 21 5.91584 20.2084 5.12417Z" fill="white"/>
</svg>
