<svg width="25" height="25" viewBox="0 0 25 25" fill="none" xmlns="http://www.w3.org/2000/svg">
<path d="M15.9257 19.7255C14.8422 21.1436 14.3004 21.8526 13.6747 22.1756C12.7682 22.6434 11.6892 22.6434 10.7827 22.1756C10.157 21.8526 9.61521 21.1436 8.53164 19.7255L4.93306 15.016C4.27399 14.1534 3.94445 13.7222 3.78128 13.2604C3.54524 12.5925 3.54524 11.8647 3.78128 11.1968C3.94446 10.7351 4.27399 10.3038 4.93306 9.44128L8.53164 4.73176C9.61521 3.31367 10.157 2.60463 10.7827 2.28167C11.6892 1.81382 12.7682 1.81382 13.6747 2.28167C14.3004 2.60463 14.8422 3.31367 15.9257 4.73176L19.5243 9.44128C20.1834 10.3038 20.5129 10.7351 20.6761 11.1968C20.9121 11.8647 20.9121 12.5925 20.6761 13.2604C20.5129 13.7222 20.1834 14.1534 19.5243 15.016L15.9257 19.7255Z" fill="white"/>
</svg>
