<svg width="25" height="25" viewBox="0 0 25 25" fill="none" xmlns="http://www.w3.org/2000/svg">
<path d="M2.55756 7.45537C2.55756 4.57324 4.89398 2.23682 7.77611 2.23682H17.2239C20.106 2.23682 22.4424 4.57324 22.4424 7.45537C22.4424 9.83223 20.8534 11.8379 18.6797 12.4681C18.6656 12.4723 18.6557 12.4852 18.6557 12.5C18.6557 12.5147 18.6656 12.5277 18.6797 12.5318C20.8534 13.162 22.4424 15.1677 22.4424 17.5446C22.4424 20.4267 20.106 22.7631 17.2239 22.7631H7.77611C4.89398 22.7631 2.55756 20.4267 2.55756 17.5446C2.55756 15.1832 4.1259 13.1882 6.27776 12.5443C6.29736 12.5384 6.31094 12.5204 6.31094 12.5C6.31094 12.4795 6.29736 12.4615 6.27776 12.4556C4.1259 11.8117 2.55756 9.81671 2.55756 7.45537Z" fill="white"/>
</svg>
